SplineFontDB: 1.0
FontName: Tuffy-Bold
FullName: Tuffy Bold
FamilyName: Tuffy
Weight: Bold
Copyright: Created by Thatcher Ulrich (http://tulrich.com) with FontForge 1.0 (http://fontforge.sf.net)\n\nThis font, including hint instructions, has been donated to the Public Domain.  Do whatever you want with it.\n
Comments: 2004-9-1: Created.
Version: 001.100
DefaultBaseFilename: Tuffy_Bold
ItalicAngle: 0
UnderlinePosition: -204
UnderlineWidth: 102
Ascent: 1597
Descent: 451
NeedsXUIDChange: 1
XUID: [1021 745 1046372284 8541739]
FSType: 0
OS2Version: 0
OS2_WeightWidthSlopeOnly: 0
OS2_UseTypoMetrics: 0
CreationTime: 1166531129
ModificationTime: 1171226405
PfmFamily: 33
TTFWeight: 700
TTFWidth: 5
LineGap: 190
VLineGap: 0
Panose: 2 11 8 3 6 1 0 0 0 0
OS2TypoAscent: 0
OS2TypoAOffset: 1
OS2TypoDescent: 0
OS2TypoDOffset: 1
OS2TypoLinegap: 0
OS2WinAscent: 0
OS2WinAOffset: 1
OS2WinDescent: 0
OS2WinDOffset: 1
HheadAscent: 0
HheadAOffset: 1
HheadDescent: 0
HheadDOffset: 1
OS2Vendor: 'PfEd'
ScriptLang: 2
 1 latn 1 dflt 
 1 DFLT 1 dflt 
TtfTable: cvt  4
!$MDh
EndTtf
LangName: 1033 "" "" "" "" "" "" "" "" "" "Thatcher Ulrich" "" "http://tulrich.com+AAoA" "http://tulrich.com+AAoA" "Public Domain+AAoA" 
Encoding: Custom
UnicodeInterp: none
NameList: Adobe Glyph List
DisplaySize: -48
AntiAlias: 1
FitToEm: 1
WinInfo: 85 17 7
BeginPrivate: 0
EndPrivate
Grid
1362 0 m 25,0,0
1362 1074 m 25,0,0
1362 0 m 25,0,0
1362 1074 m 25,0,0
1362 0 m 25,0,0
1362 1074 m 25,0,0
1362 0 m 25,0,0
-24 537 m 2,0,-1
 772 537 l 0
1090 1610 m 25,2,-1
 1090 -16 l 25
-20 1455 m 2,4,-1
 1696 1455 l 0
-22 1074 m 2,6,-1
 1694 1074 l 0
1003 1610 m 25,8,-1
 1003 -16 l 25
1151 1612 m 25,10,-1
 1151 -14 l 25
-24 730 m 2,12,-1
 772 730 l 0
-28 -29 m 2,14,-1
 1148 -29 l 0
115 1662 m 25,16,-1
 115 -14 l 25
EndSplineSet
TeXData: 1 0 0 315621 157810 105207 456131 1048576 105207 783286 444596 497025 792723 393216 433062 380633 303038 157286 324010 404750 52429 2506097 1059062 262144
BeginChars: 203 195
StartChar: exclam
Encoding: 1 33 1
Width: 457
Flags: HW
HStem: -33 328<116 351.3> 1463 20G<205.5 257.5>
VStem: 69 328<14 249.3> 92 280<1241.69 1454.7> 133 199<395.8 590.153>
Fore
332 440 m 1xc8
 332 406 262 381 233 381 c 1
 201 381 133 406 133 440 c 1xc8
 92 1389 l 1
 92 1442 180 1483 231 1483 c 1
 284 1483 372 1440 372 1391 c 1xd0
 332 440 l 1xc8
EndSplineSet
Refer: 14 46 N 1 0 0 1 5 0 2
EndChar
StartChar: quotedbl
Encoding: 2 34 2
Width: 874
Flags: HW
VStem: 129 231<1355.7 1491.63> 504 231<1352.89 1491.63>
Back
442.368 1091.58 m 1
 421.886 1466.37 l 1
 421.89 1515.74 458.062 1542.25 493.697 1542.25 c 0
 495.021 1542.25 496.343 1542.22 497.664 1542.14 c 0
 529.511 1542.14 561.359 1523.8 569.437 1485.79 c 0
 570.71 1479.81 571.39 1473.33 571.39 1466.37 c 1
 550.912 1091.58 l 1
 548.864 1060.86 520.192 1044.48 495.616 1044.48 c 0
 473.258 1044.48 449.204 1056.35 443.505 1083.16 c 0
 442.938 1085.82 442.553 1088.63 442.368 1091.58 c 1
149.504 1091.58 m 1
 129.021 1466.37 l 1
 129.026 1515.74 165.198 1542.25 200.834 1542.25 c 0
 202.156 1542.25 203.48 1542.22 204.8 1542.14 c 0
 236.646 1542.14 268.495 1523.8 276.572 1485.79 c 0
 277.846 1479.81 278.526 1473.33 278.526 1466.37 c 1
 258.048 1091.58 l 1
 256 1060.86 227.328 1044.48 202.752 1044.48 c 0
 180.394 1044.48 156.34 1056.35 150.64 1083.16 c 0
 150.074 1085.82 149.688 1088.63 149.504 1091.58 c 1
EndSplineSet
Fore
524 1092 m 1
 504 1466 l 1
 504 1516 581 1542 617 1542 c 0
 618 1542 619 1542 621 1542 c 0
 652 1542 725 1524 733 1486 c 0
 735 1480 735 1473 735 1466 c 1
 715 1092 l 1
 713 1061 643 1044 618 1044 c 0
 596 1044 531 1056 525 1083 c 0
 525 1086 524 1089 524 1092 c 1
150 1092 m 1
 129 1466 l 1
 129 1516 206 1542 242 1542 c 0
 243 1542 244 1542 246 1542 c 0
 278 1542 350 1524 358 1486 c 0
 360 1480 360 1473 360 1466 c 1
 340 1092 l 1
 338 1061 268 1044 244 1044 c 0
 221 1044 156 1056 151 1083 c 0
 150 1086 150 1089 150 1092 c 1
EndSplineSet
EndChar
StartChar: numbersign
Encoding: 3 35 3
Width: 1565
Flags: HMW
Back
958.464 546.816 m 0
 958.464 884.736 l 0
 616.448 884.736 l 0
 616.448 546.816 l 0
 958.464 546.816 l 0
1107.97 405.504 m 0
 1107.97 53.248 l 1
 958.464 53.248 l 1
 958.464 405.504 l 0
 616.448 405.504 l 0
 616.448 53.248 l 1
 466.944 53.248 l 1
 466.944 405.504 l 0
 118.784 405.504 l 1
 118.784 546.816 l 1
 466.944 546.816 l 0
 466.944 884.736 l 0
 118.784 884.736 l 1
 118.784 1024 l 1
 466.944 1024 l 0
 466.944 1402.88 l 1
 616.448 1402.88 l 1
 616.448 1024 l 0
 958.464 1024 l 0
 958.464 1402.88 l 1
 1107.97 1402.88 l 1
 1107.97 1024 l 0
 1468.42 1024 l 1
 1468.42 884.736 l 1
 1107.97 884.736 l 0
 1107.97 546.816 l 0
 1468.42 546.816 l 1
 1468.42 405.504 l 1
 1107.97 405.504 l 0
EndSplineSet
Fore
876 596 m 0
 876 836 l 0
 691 836 l 0
 691 596 l 0
 876 596 l 0
1130 356 m 0
 1130 47 l 1
 876 47 l 1
 876 356 l 0
 691 356 l 0
 691 47 l 1
 437 47 l 1
 437 356 l 0
 119 356 l 1
 119 596 l 1
 437 596 l 0
 437 836 l 0
 119 836 l 1
 119 1073 l 1
 437 1073 l 0
 437 1403 l 1
 691 1403 l 1
 691 1073 l 0
 876 1073 l 0
 876 1403 l 1
 1130 1403 l 1
 1130 1073 l 0
 1441 1073 l 1
 1441 836 l 1
 1130 836 l 0
 1130 596 l 0
 1441 596 l 1
 1441 356 l 1
 1130 356 l 0
EndSplineSet
KernsSLIFO: 4 -55 0 0
EndChar
StartChar: dollar
Encoding: 4 36 4
Width: 927
Flags: HW
VStem: 432 170<-155 -26 225 578 885 1159 1405 1537>
Back
18.4316 343.497 m 1
 266.127 426.394 l 1
 333.824 282.624 372.736 212.992 530.432 212.992 c 1
 684.032 212.992 741.376 278.528 741.376 393.216 c 1
 741.376 507.371 649.912 578.865 464.896 626.688 c 0
 277.113 675.808 45.0557 769.688 45.0557 1028.1 c 1
 45.0557 1301.06 265.624 1409.64 513.186 1409.64 c 1
 742.695 1409.64 879.372 1331.23 968.09 1151.04 c 1
 705.098 1073.14 l 1
 662.622 1149.38 624.193 1169.41 509.952 1169.41 c 1
 400.085 1169.41 319.488 1156.44 319.488 1028.1 c 1
 319.488 897.611 480.215 863.31 583.537 831.054 c 0
 791.046 760.94 1015.81 671.55 1015.81 393.216 c 1
 1015.81 122.88 811.008 -28.6719 530.432 -28.6719 c 1
 253.952 -28.6719 114.688 102.4 18.4316 343.497 c 1
EndSplineSet
Fore
432 1537 m 1
 602 1537 l 1
 602 1404 l 1
 770 1391 887 1309 971 1155 c 1
 707 1073 l 1
 670 1128 659 1145 602 1159 c 1
 602 823 l 1
 801 756 1016 662 1016 385 c 0
 1016 170 866 0 602 -26 c 1
 602 -155 l 1
 434 -155 l 1
 434 -26 l 1
 213 -8 72 186 20 344 c 1
 266 426 l 1
 303 348 352 238 434 225 c 1
 434 639 l 1
 221 686 43 799 43 1051 c 0
 43 1255 231 1393 432 1405 c 1
 432 1537 l 1
434 885 m 1
 434 1167 l 1
 344 1157 319 1077 319 1044 c 0
 319 952 358 915 434 885 c 1
602 578 m 1
 602 217 l 1
 705 240 741 309 741 387 c 0
 741 430 727 526 602 578 c 1
EndSplineSet
EndChar
StartChar: percent
Encoding: 5 37 5
Width: 1435
Flags: HW
HStem: 63 207<964.3 1091.7> 479 205<964.9 1091> 768 207<333.3 460.7> 1184 205<335.2 460>
VStem: 94 215<993.1 1150.4> 483 219<989.2 1150.4> 725 215<289.1 446.4> 1114 217<285.2 446.4>
Back
880.64 372.736 m 0
 880.64 286.72 935.937 219.136 1021.95 219.136 c 0
 1101.82 219.136 1169.41 282.624 1169.41 372.736 c 0
 1169.41 452.608 1105.92 522.24 1021.95 522.24 c 0
 944.128 522.24 880.64 452.608 880.64 372.736 c 0
751.616 372.736 m 0
 751.616 522.24 872.448 643.072 1024 643.072 c 0
 1175.55 643.072 1298.43 522.24 1298.43 372.736 c 0
 1298.43 223.232 1175.55 104.448 1024 104.448 c 0
 872.448 104.448 751.616 223.232 751.616 372.736 c 0
221.184 1077.25 m 0
 221.184 991.232 278.528 923.648 364.544 923.648 c 0
 444.416 923.648 512 987.136 512 1077.25 c 0
 512 1157.12 448.512 1226.75 364.544 1226.75 c 0
 286.72 1226.75 221.184 1157.12 221.184 1077.25 c 0
94.208 1077.25 m 0
 94.208 1226.75 215.04 1347.58 366.592 1347.58 c 0
 518.144 1347.58 641.024 1226.75 641.024 1077.25 c 0
 641.024 927.744 518.144 808.96 366.592 808.96 c 0
 215.04 808.96 94.208 927.744 94.208 1077.25 c 0
413.696 137.216 m 1
 264.192 137.216 l 1
 985.088 1318.91 l 0
 1128.45 1318.91 l 1
 413.696 137.216 l 1
EndSplineSet
Fore
940 371 m 0
 940 308 979 270 1028 270 c 0
 1077 270 1114 305 1114 371 c 0
 1114 429 1076 479 1026 479 c 0
 979 479 940 429 940 371 c 0
725 370 m 0
 725 544 859 684 1028 684 c 0
 1195 684 1331 544 1331 371 c 0
 1331 200 1195 63 1028 63 c 0
 859 63 725 199 725 370 c 0
309 1075 m 0
 309 1012 348 975 397 975 c 0
 446 975 483 1009 483 1075 c 0
 483 1133 445 1184 395 1184 c 0
 349 1184 309 1133 309 1075 c 0
94 1076 m 0
 94 1249 229 1389 397 1389 c 0
 566 1389 702 1248 702 1075 c 0
 702 904 566 768 397 768 c 0
 229 768 94 904 94 1076 c 0
485 119 m 1
 275 119 l 1
 946 1337 l 0
 1147 1337 l 1
 485 119 l 1
EndSplineSet
EndChar
StartChar: ampersand
Encoding: 6 38 6
Width: 1284
Flags: HW
HStem: -53 241<372.9 756.4> 358 217<598 772 1026 1184> 707 239<425.7 727> 1278 242<434.4 652.8>
VStem: 59 261<257.7 632.1> 106 269<971.1 1259.7>
Back
751.616 1228.8 m 17xf4
 729.088 1292.29 626.688 1351.68 540.672 1351.68 c 1
 432.128 1351.68 319.488 1282.05 319.488 1134.59 c 1xf4
 319.488 978.944 425.984 897.024 557.056 897.024 c 1
 727.04 897.024 l 1
 727.04 755.712 l 1
 561.152 755.712 l 2
 374.784 755.712 237.568 630.784 237.568 430.08 c 0
 237.568 247.808 385.024 110.592 550.912 110.592 c 1
 720.896 110.592 833.536 256 833.536 407.552 c 1xfa
 618.496 407.552 l 1
 618.496 546.816 l 1
 1140.74 546.816 l 1
 1140.74 405.504 l 1xf1
 983.04 405.504 l 1
 983.04 231.424 862.208 -30.7197 550.912 -30.7197 c 1
 315.392 -30.7197 79.8721 126.976 79.8721 415.744 c 0xfa
 79.8721 696.32 245.76 802.816 354.304 827.392 c 1
 266.24 856.064 161.792 958.464 161.792 1134.59 c 0
 161.792 1339.39 323.584 1492.99 542.72 1492.99 c 0
 714.752 1492.99 825.344 1409.02 876.544 1304.58 c 9
 751.616 1228.8 l 17xf4
EndSplineSet
Fore
711 1167 m 17xf4
 688 1214 627 1278 541 1278 c 1
 459 1278 375 1227 375 1118 c 1xf4
 375 1005 456 946 557 946 c 1
 727 946 l 1
 727 707 l 1
 561 707 l 2
 418 707 320 585 320 428 c 0
 320 297 414 188 551 188 c 1
 709 188 772 272 772 358 c 1
 598 358 l 1
 598 575 l 1
 1184 575 l 1
 1184 360 l 1
 1026 360 l 1
 1026 197 885 -53 551 -53 c 1
 287 -53 59 133 59 391 c 0xf8
 59 701 225 795 298 828 c 1
 229 856 106 952 106 1118 c 0
 106 1364 303 1520 543 1520 c 0
 738 1520 864 1410 922 1274 c 9
 711 1167 l 17xf4
EndSplineSet
EndChar
StartChar: quotesingle
Encoding: 7 39 7
Width: 464
Flags: HW
VStem: 129 231<1355.7 1491.63>
Back
118.784 1050.62 m 1
 118.784 1548.29 l 1
 268.288 1548.29 l 1
 268.288 1050.62 l 1
 118.784 1050.62 l 1
EndSplineSet
Fore
150 1092 m 1
 129 1466 l 1
 129 1516 206 1542 242 1542 c 0
 243 1542 244 1542 246 1542 c 0
 278 1542 350 1524 358 1486 c 0
 360 1480 360 1473 360 1466 c 1
 340 1092 l 1
 338 1061 268 1044 244 1044 c 0
 221 1044 156 1056 151 1083 c 0
 150 1086 150 1089 150 1092 c 1
EndSplineSet
EndChar
StartChar: parenleft
Encoding: 8 40 8
Width: 653
Flags: HW
VStem: 31 258<388.4 1077.4>
Back
268.288 -83.9678 m 1
 104.448 167.936 30.7197 458.752 30.7197 739.328 c 0
 30.7197 997.376 110.592 1314.82 268.288 1562.62 c 1
 446.464 1562.62 l 1
 262.144 1294.34 182.272 997.376 182.272 729.088 c 0
 182.272 466.944 272.384 169.984 446.464 -83.9678 c 1
 268.288 -83.9678 l 1
EndSplineSet
Fore
289 -84 m 1
 83 177 31 449 31 739 c 0
 31 1006 90 1307 289 1563 c 1
 553 1563 l 1
 369 1294 289 997 289 729 c 0
 289 467 379 170 553 -84 c 1
 289 -84 l 1
EndSplineSet
EndChar
StartChar: parenright
Encoding: 9 41 9
Width: 643
Flags: HW
VStem: 344 258<386.4 1046.8>
Back
256 -96.2559 m 1
 79.8721 -96.2559 l 1
 251.904 155.648 344.064 464.896 344.064 727.04 c 0
 344.064 972.8 253.952 1294.34 79.8721 1550.34 c 1
 256 1550.34 l 1
 413.696 1302.53 495.616 985.088 495.616 727.04 c 0
 495.616 452.608 417.792 151.552 256 -96.2559 c 1
EndSplineSet
Fore
340 -96 m 1
 80 -96 l 1
 252 156 344 465 344 727 c 0
 344 973 254 1293 80 1549 c 1
 341 1549 l 1
 540 1293 602 994 602 727 c 0
 602 443 545 160 340 -96 c 1
EndSplineSet
EndChar
StartChar: asterisk
Encoding: 10 42 10
Width: 1172
Flags: HW
HStem: 604 231<137.367 272.421 897.581 1032.63>
Back
620.813 645.394 m 5
 826 332 l 5
 851 288.699 797.315 227.682 766.139 209.682 c 4
 765.272 209.182 764.406 208.682 762.675 207.682 c 4
 734.962 191.682 663.608 171.271 637.68 200.18 c 4
 632.947 204.376 629.447 210.438 625.947 216.5 c 5
 456.269 550.394 l 5
 442.5 578.24 494.622 627.963 515.406 639.963 c 4
 535.325 651.463 597.617 673.57 615.447 652.688 c 4
 617.813 650.59 619.313 647.991 620.813 645.394 c 5
572.675 551.712 m 5
 403.861 217.318 l 5
 378.861 174.017 299.177 190 268 208 c 4
 267.134 208.5 266.268 209 264.536 210 c 4
 236.823 226 183.47 277.589 195.541 314.498 c 4
 196.809 320.693 200.309 326.756 203.809 332.818 c 5
 408.13 646.712 l 5
 425.361 672.559 494.483 652.281 515.268 640.281 c 4
 535.187 628.781 585.479 585.889 576.309 560.006 c 4
 575.675 556.908 574.175 554.31 572.675 551.712 c 5
411.455 635 m 5
 206.269 948.394 l 5
 181.269 991.695 234.953 1052.71 266.13 1070.71 c 4
 266.996 1071.21 267.862 1071.71 269.594 1072.71 c 4
 297.307 1088.71 368.66 1109.12 394.589 1080.21 c 4
 399.321 1076.02 402.821 1069.96 406.321 1063.89 c 5
 576 730 l 5
 589.769 702.153 537.646 652.431 516.862 640.431 c 4
 496.943 628.931 434.651 606.823 416.821 627.706 c 4
 414.455 629.804 412.955 632.402 411.455 635 c 5
459.455 729 m 5
 628.269 1063.39 l 5
 653.269 1106.7 732.953 1090.71 764.13 1072.71 c 4
 764.996 1072.21 765.862 1071.71 767.594 1070.71 c 4
 795.307 1054.71 848.66 1003.12 836.589 966.214 c 4
 835.321 960.019 831.821 953.956 828.321 947.894 c 5
 624 634 l 5
 606.769 608.153 537.646 628.431 516.862 640.431 c 4
 496.943 651.931 446.651 694.823 455.821 720.706 c 4
 456.455 723.804 457.955 726.402 459.455 729 c 5
564 734 m 5
 938 755 l 5
 988 755 1014 678 1014 642 c 4
 1014 641 1014 640 1014 638 c 4
 1014 606 996 534 958 526 c 4
 952 524 945 524 938 524 c 5
 564 544 l 5
 533 546 516 616 516 640 c 4
 516 663 528 728 555 733 c 4
 558 734 561 734 564 734 c 5
468 545 m 5
 94 524 l 5
 44 524 18 601 18 637 c 4
 18 638 18 639 18 641 c 4
 18 673 36 745 74 753 c 4
 80 755 87 755 94 755 c 5
 468 735 l 5
 499 733 516 663 516 639 c 4
 516 616 504 551 477 546 c 4
 474 545 471 545 468 545 c 5
EndSplineSet
Fore
762.838 821.29 m 1
 1007 835 l 2
 1057 835 1083 758 1083 722 c 0
 1083 721 1083 720 1083 718 c 0
 1083 686 1065 614 1027 606 c 0
 1021 604 1014 604 1007 604 c 2
 760.668 617.173 l 1
 895 412 l 2
 899.49 404.223 901.442 395.874 901.442 387.306 c 0
 901.442 348.169 860.716 304.449 835.139 289.682 c 0
 834.272 289.182 833.406 288.682 831.675 287.682 c 0
 814.107 277.539 779.001 265.624 749.048 265.624 c 0
 731.751 265.624 716.172 269.597 706.68 280.18 c 0
 701.947 284.376 698.447 290.438 694.947 296.5 c 2
 583.33 516.14 l 1
 472.861 297.318 l 2
 461.024 276.816 436.929 269.605 411.528 269.605 c 0
 383.28 269.605 353.416 278.523 337 288 c 0
 336.134 288.5 335.268 289 333.536 290 c 0
 308.572 304.418 262.791 347.716 262.791 383.144 c 0
 262.791 387.04 263.345 390.841 264.541 394.498 c 0
 265.809 400.693 269.309 406.756 272.809 412.818 c 2
 406.141 617.652 l 1
 163 604 l 2
 113 604 87 681 87 717 c 0
 87 718 87 719 87 721 c 0
 87 753 105 825 143 833 c 0
 149 835 156 835 163 835 c 2
 410.556 821.762 l 1
 275.269 1028.39 l 2
 270.779 1036.17 268.827 1044.52 268.827 1053.09 c 0
 268.827 1092.23 309.553 1135.94 335.13 1150.71 c 0
 335.996 1151.21 336.862 1151.71 338.594 1152.71 c 0
 356.162 1162.85 391.266 1174.77 421.219 1174.77 c 0
 438.517 1174.77 454.097 1170.79 463.589 1160.21 c 0
 468.321 1156.02 471.821 1149.96 475.321 1143.89 c 2
 586.788 924.549 l 1
 697.269 1143.39 l 2
 709.105 1163.9 733.2 1171.11 758.601 1171.11 c 0
 786.849 1171.11 816.714 1162.19 833.13 1152.71 c 0
 833.996 1152.21 834.862 1151.71 836.594 1150.71 c 0
 861.559 1136.3 907.339 1092.99 907.339 1057.56 c 0
 907.339 1053.67 906.785 1049.87 905.589 1046.21 c 0
 904.321 1040.02 900.821 1033.96 897.321 1027.89 c 2
 762.838 821.29 l 1
EndSplineSet
EndChar
StartChar: plus
Encoding: 11 43 11
Width: 972
Flags: HW
HStem: 520 240<68 334 574 861>
VStem: 334 240<233 520 760 1062>
Back
67.584 710.656 m 1
 374.784 710.656 l 1
 374.784 1021.95 l 1
 516.096 1021.95 l 1
 516.096 710.656 l 1
 823.296 710.656 l 1
 823.296 569.344 l 1
 516.096 569.344 l 1
 516.096 258.048 l 1
 374.784 258.048 l 1
 374.784 569.344 l 1
 67.584 569.344 l 1
 67.584 710.656 l 1
EndSplineSet
Fore
68 760 m 1
 334 760 l 1
 334 1062 l 1
 574 1062 l 1
 574 760 l 1
 861 760 l 1
 861 520 l 1
 573 520 l 1
 573 233 l 1
 334 233 l 1
 334 520 l 1
 68 520 l 1
 68 760 l 1
EndSplineSet
EndChar
StartChar: comma
Encoding: 12 44 12
Width: 444
Flags: HW
HStem: -205 503<203 215>
VStem: 56 326<5.7 228>
Back
308.224 94.208 m 1
 308.224 -63.4883 206.848 -186.368 184.32 -221.184 c 1
 129.024 -190.464 l 1
 149.504 -159.744 200.704 -83.9678 200.704 -12.2881 c 0
 141.352 -12.2881 93.1836 34.8555 93.1836 94.208 c 0
 93.1836 153.561 141.352 201.728 200.704 201.728 c 0
 260.055 201.728 308.224 153.561 308.224 94.208 c 1
EndSplineSet
Fore
382 137 m 1
 382 -27 249 -169 203 -205 c 1
 129 -162 l 1
 138.699 -146.129 174.055 -73.5016 174.055 -40.0937 c 0
 174.055 -35.6132 173.419 -31.8381 172 -29 c 1
 117 -16 56 36 56 137 c 1
 56 215 129 298 215 298 c 1
 330 298 382 207 382 137 c 1
EndSplineSet
EndChar
StartChar: hyphen
Encoding: 13 45 13
Width: 960
Flags: HW
HStem: 514 240<98 870>
Back
98.3037 704.512 m 1
 776.192 704.512 l 1
 776.192 563.2 l 1
 98.3037 563.2 l 1
 98.3037 704.512 l 1
EndSplineSet
Fore
98 754 m 1
 870 754 l 1
 870 514 l 1
 98 514 l 1
 98 754 l 1
EndSplineSet
EndChar
StartChar: period
Encoding: 14 46 14
Width: 451
Flags: HW
HStem: -33 328<111 346.3>
VStem: 64 328<14 249.3>
Back
93.1836 94.208 m 0
 93.1836 153.561 141.352 201.728 200.704 201.728 c 0
 260.055 201.728 308.224 153.561 308.224 94.208 c 0
 308.224 34.8555 260.055 -13.3115 200.704 -13.3115 c 0
 141.352 -13.3115 93.1836 34.8555 93.1836 94.208 c 0
EndSplineSet
Fore
64 131 m 0
 64 222 138 295 228 295 c 0
 319 295 392 222 392 131 c 0
 392 41 319 -33 228 -33 c 0
 138 -33 64 41 64 131 c 0
EndSplineSet
EndChar
StartChar: slash
Encoding: 15 47 15
Width: 847
Flags: HW
HStem: 0 21G<-42 245>
VStem: -42 923<0 1544>
Back
124.928 0 m 1
 -32.7676 0 l 1
 684.032 1544.19 l 0
 841.729 1544.19 l 1
 124.928 0 l 1
EndSplineSet
Fore
245 0 m 1
 -42 0 l 1
 613 1544 l 0
 881 1544 l 1
 245 0 l 1
EndSplineSet
KernsSLIFO: 15 -143 0 0
EndChar
StartChar: zero
Encoding: 16 48 16
Width: 1177
Flags: HW
HStem: -28 242<337 831> 1248 242<343 837>
VStem: 80 268<301 1211> 821 268<301 1211>
Back
90.1123 727.04 m 1
 90.1123 1136.64 268.288 1492.99 571.392 1492.99 c 1
 874.496 1492.99 1038.34 1136.64 1038.34 727.04 c 1
 1038.34 319.488 866.304 -30.7197 563.2 -30.7197 c 1
 260.096 -30.7197 90.1123 319.488 90.1123 727.04 c 1
247.808 727.04 m 1
 247.808 448.512 342.016 110.592 563.2 110.592 c 1
 786.432 110.592 880.64 448.512 880.64 727.04 c 1
 880.64 1007.62 794.624 1351.68 571.392 1351.68 c 1
 350.208 1351.68 247.808 1007.62 247.808 727.04 c 1
EndSplineSet
Fore
80 756 m 1
 80 1216 270 1490 590 1490 c 1
 910 1490 1089 1216 1089 756 c 1
 1089 296.706 904.567 -28.0023 585.472 -28.0023 c 0
 584.982 -28.0023 584.491 -28.0015 584 -28 c 1
 264 -28 80 296 80 756 c 1
348 756 m 1
 348 406 394 214 584 214 c 1
 774 214 821 406 821 756 c 1
 821 1106 780 1248 590 1248 c 1
 400 1248 348 1106 348 756 c 1
EndSplineSet
EndChar
StartChar: one
Encoding: 17 49 17
Width: 1177
Flags: HW
HStem: 0 21G<502 770> 1436 20G<505 770>
VStem: 502 268<0 1206>
Back
571.392 1275.9 m 1
 362.496 1099.78 l 1
 272.384 1196.03 l 1
 573.44 1456.13 l 1
 729.088 1456.13 l 1
 729.088 0 l 1
 571.392 0 l 1
 571.392 1275.9 l 1
EndSplineSet
Fore
502 1184 m 1
 502 1206 l 1
 229 1206 l 1
 261 1236 l 5
 505 1456 l 5
 770 1456 l 1
 770 0 l 1
 502 0 l 1
 502 1184 l 1
EndSplineSet
EndChar
StartChar: two
Encoding: 18 50 18
Width: 1177
Flags: HW
HStem: 0 240<402 1061> 1252 240<422.7 711.3>
VStem: 759 262<831.7 1224.3>
Back
725 1176 m 5
 942 1322 l 5
240 1112 m 21
 274 1230 408 1368 570 1368 c 5
 788 1368 893.694 1219.53 893 1040 c 28
 892.165 823.919 712 704 567 592 c 4
 422 480 243 336 243 146 c 5
188 398 m 5
 412 265 l 5
719 896 m 5
 931 751 l 5
485 686 m 5
 642 488 l 5
262.144 1110.02 m 9
 122.878 1165.31 l 17
 174.08 1347.58 366.592 1495.04 569.344 1495.04 c 0
 780.288 1495.04 989.182 1359.87 989.182 1052.67 c 0
 989.182 772.096 688.697 610.386 591.872 540.672 c 0
 489.472 466.944 272.384 274.432 272.384 141.312 c 1
 1036.29 141.312 l 17
 1036.29 0 l 1
 88.0645 0 l 1
 88.0645 325.632 333.824 528.384 544.771 675.84 c 0
 652.012 750.805 835.582 849.92 835.582 1052.67 c 0
 835.582 1249.28 702.464 1353.73 569.344 1353.73 c 0
 442.368 1353.73 313.344 1271.81 262.144 1110.02 c 9
EndSplineSet
Fore
358 1076 m 9
 120 1147 l 17
 159 1344 368 1492 567 1492 c 1
 766 1492 1021 1396 1021 1041 c 5
 1021 880 980.671 785.329 857.732 663 c 0
 710 516 456 386 402 240 c 1
 1061 240 l 17
 1061 0 l 1
 92 0 l 1
 92 210 124.378 359.434 298.489 534 c 0
 486 722 759 813.245 759 1041 c 0
 759 1182 678 1252 567 1252 c 1
 456 1252 392 1194 358 1076 c 9
EndSplineSet
EndChar
StartChar: three
Encoding: 19 51 19
Width: 1177
Flags: HW
HStem: -28 242<483.6 777.4> 651 213<433 708.9> 1253 237<458.5 702.9>
VStem: 760 252<934.4 1228.2> 831 269<271.7 588.9>
Back
763 274 m 5
 920 76 l 5
805 530 m 5
 1022 676 l 5
741 1162 m 5
 958 1308 l 5
240 1112 m 21
 274 1230 408 1368 570 1368 c 5
 777.371 1368 889.966 1223.49 893.344 1056 c 4
 897.359 856.812 745.042 760 542 760 c 5
 762 760 964 690 964 428 c 5
 964 186 772 98 598 98 c 5
 450 98 318 180 264 282 c 5
122.88 251.904 m 9xd0
 278.528 299.008 l 17
 329.728 188.416 448.512 110.592 557.056 110.592 c 1
 720.896 110.592 868.352 202.752 868.352 403.456 c 1xd0
 868.352 602.112 718.848 692.224 561.152 692.224 c 0
 483.328 692.224 l 1
 483.328 825.344 l 1
 561.152 825.344 l 0
 706.56 825.344 833.536 909.312 833.536 1085.44 c 1
 833.536 1241.09 743.424 1357.82 559.104 1357.82 c 1
 552.96 1357.82 l 0
 448.512 1357.82 342.016 1302.53 299.008 1200.13 c 9
 161.792 1263.62 l 17
 231.424 1400.83 393.216 1497.09 559.104 1497.09 c 1
 811.008 1497.09 991.232 1327.1 991.232 1085.44 c 1xe0
 991.232 890.88 860.16 792.576 796.672 753.664 c 1
 884.736 727.04 1026.05 614.4 1026.05 403.456 c 1
 1026.05 129.024 817.152 -30.7197 557.056 -30.7197 c 1
 401.408 -30.7197 200.704 71.6797 122.88 251.904 c 9xd0
EndSplineSet
Fore
93 323 m 9xe8
 351 393 l 17
 404 260 510 214 598 214 c 1
 736 214 831 308 831 429 c 1xe8
 831 552 718 651 598 651 c 0
 433 651 l 1
 433 864 l 1
 575 864 l 0
 678 864 760 962 760 1054 c 0
 760 1188 672 1253 569 1253 c 0
 484 1253 424 1195 402 1142 c 9
 152 1208 l 17
 221 1389 359 1490 568 1490 c 1
 796 1490 1012 1380 1012 1096 c 5xf0
 1012 964 948 878 867 820 c 1
 976 746 1100 640 1100 429 c 1
 1100 184 888 -28 598 -28 c 1
 381 -28 184 72 93 323 c 9xe8
EndSplineSet
EndChar
StartChar: four
Encoding: 20 52 20
Width: 1177
Flags: HW
HStem: 0 21G<675 944> 348 237<348 675 944 1082> 1436 20G<655 944>
VStem: 675 269<0 348> 683 261<588 1105>
Back
854.016 1445.25 m 1
 854.016 536.576 l 9
 1042.43 536.576 l 17
 1042.43 397.312 l 1
 854.016 397.312 l 1
 854.016 0 l 1
 696.32 0 l 1
 696.32 397.312 l 1
 77.8242 397.312 l 9
 684.032 1456.13 l 1
 696.32 1456.13 l 1
 854.016 1456.13 l 1
 860.16 1456.13 l 1
 854.016 1445.25 l 1
700.416 1229.67 m 1
 313.344 538.624 l 1
 700.416 538.624 l 1
 700.416 1229.67 l 1
EndSplineSet
Fore
944 585 m 9xe8
 1082 585 l 17
 1082 348 l 1
 944 348 l 1
 944 0 l 1
 675 0 l 1
 675 348 l 1xf0
 90.1807 348 l 1
 90.1807 552 l 1
 655 1456 l 1
 944 1456 l 1
 944 585 l 9xe8
683 1105 m 1
 348 588 l 1
 683 588 l 1
 683 1105 l 1
EndSplineSet
EndChar
StartChar: five
Encoding: 21 53 21
Width: 1177
Flags: HW
HStem: -26 242<403 793> 719 229<484.895 793> 1217 239<506 975>
VStem: 842 264<282.9 639.1>
Back
763 274 m 1
 920 76 l 1
812 590 m 1
 1029 736 l 1
306 752 m 0
 354 782 472 823.669 598 823.669 c 1
 776 823.669 973 678 973 461 c 1
 973 240 772 98 598 98 c 1
 450 98 328 180 274 282 c 1
221 461 m 0
 221 660.824 394.968 823 597 823 c 0
 799.032 823 973 660.824 973 461 c 0
 973 261.176 799.032 99 597 99 c 0
 394.968 99 221 261.176 221 461 c 0
552.96 765.952 m 1
 425.984 765.952 272.384 712.704 182.272 671.744 c 9
 282.624 1456.13 l 1
 954.368 1456.13 l 1
 954.368 1314.82 l 1
 409.6 1314.82 l 1
 354.304 868.352 l 1
 409.6 897.024 475.136 901.12 559.104 901.12 c 1
 823.296 901.12 1038.34 706.561 1038.34 417.792 c 1
 1038.34 208.896 866.304 -30.7197 587.776 -30.7197 c 1
 356.352 -30.7197 169.984 133.12 114.688 329.729 c 9
 270.336 358.4 l 17
 305.152 256 391.168 110.592 587.776 110.592 c 1
 763.904 110.592 882.688 243.712 882.688 419.84 c 1
 882.688 614.4 724.992 765.952 552.96 765.952 c 1
EndSplineSet
Fore
598 719 m 1
 504 719 456 686 431 660 c 1
 174 750 l 1
 292 1456 l 5
 975 1456 l 1
 975 1217 l 1
 506 1217 l 1
 451 926 l 1
 477 941 550 948 598 948 c 1
 884 948 1106 756 1106 461 c 1
 1106 166 884 -26 598 -26 c 1
 284 -26 126 216 94 366 c 9
 359 412 l 17
 370 352 448 216 598 216 c 1
 748 216 842 324 842 461 c 1
 842 598 748 719 598 719 c 1
EndSplineSet
EndChar
StartChar: six
Encoding: 22 54 22
Width: 1177
Flags: HW
HStem: -28 236<436.5 757.6> 660 242<520.024 750.4> 1436 20G<547.275 834>
VStem: 109 268<262.7 581.2> 798 269<288.6 590.2>
Back
387 429 m 5
 387 553 463 660 591 660 c 5
 719 660 788 547 788 433 c 5
 788 302 704 208 589 208 c 5
 457 208 387 321 387 429 c 5
677 886 m 5
 674 889 589 902 585 902 c 4
 300 902 118 703 118 429 c 5
 118 204 303 -28 591 -28 c 5
 871 -28 1056 195 1056 431 c 5
 1056 664 974 820 924 924 c 5
EndSplineSet
Fore
798 429 m 1
 798 553 712 660 584 660 c 1
 456 660 377 547 377 433 c 1
 377 302 471 208 586 208 c 1
 718 208 798 321 798 429 c 1
536 897 m 1
 539 900 586 902 590 902 c 0
 875 902 1067 703 1067 429 c 1
 1067 204 872 -28 584 -28 c 1
 304 -28 109 195 109 431 c 1
 109 664 224 820 274 924 c 1
 547.275 1456 l 1
 834 1456 l 1
 536 897 l 1
EndSplineSet
EndChar
StartChar: seven
Encoding: 23 55 23
Width: 1177
Flags: HW
HStem: 0 21G<98 422> 1202 254<100 703>
Back
1069.06 1456.13 m 1
 514.048 0 l 1
 331.776 0 l 1
 847.872 1306.62 l 1
 100.352 1306.62 l 1
 100.352 1456.13 l 1
 1069.06 1456.13 l 1
EndSplineSet
Fore
1158 1456 m 1
 422 0 l 1
 98 0 l 1
 703 1202 l 1
 100 1202 l 1
 100 1456 l 1
 1158 1456 l 1
EndSplineSet
EndChar
StartChar: eight
Encoding: 24 56 24
Width: 1177
Flags: HW
HStem: -28 221<392.4 787.6> 676 247<434 735.6> 1270 219<409.9 763.5>
VStem: 68 268<249.7 615> 125 268<940.3 1218.5> 786 269<936.4 1222.4> 844 268<251 617.6>
Back
571.392 110.592 m 0xf2
 753.664 110.592 903.168 235.52 903.168 411.648 c 1
 903.168 589.824 745.472 722.944 575.488 722.944 c 1
 395.264 722.944 251.904 587.776 251.904 411.648 c 0
 251.904 229.376 399.36 110.592 571.392 110.592 c 0xf2
317.44 1107.97 m 1xec
 317.44 956.416 430.08 856.064 575.488 856.064 c 1
 718.848 856.064 831.488 952.32 831.488 1107.97 c 1
 831.488 1239.04 745.472 1355.78 573.44 1355.78 c 1
 407.552 1355.78 317.44 1234.94 317.44 1107.97 c 1xec
573.44 1497.09 m 1
 825.344 1497.09 989.184 1333.25 989.184 1107.97 c 1xec
 989.184 913.408 870.4 833.536 817.152 786.432 c 1
 894.976 727.04 1060.86 612.352 1060.86 411.648 c 1
 1060.86 147.456 833.536 -30.7197 571.392 -30.7197 c 1
 309.248 -30.7197 94.208 151.552 94.208 411.648 c 1xf2
 94.208 604.16 245.76 727.04 329.728 786.432 c 1
 266.24 843.776 159.744 917.504 159.744 1107.97 c 1
 159.744 1327.1 323.584 1497.09 573.44 1497.09 c 1
EndSplineSet
Fore
590 193 m 0xf2
 742 193 844 293 844 433 c 1
 844 575 721 676 590 676 c 1
 426 676 336 573 336 433 c 0
 336 292 438 193 590 193 c 0xf2
393 1095 m 1xec
 393 976 470 923 590 923 c 1
 702 923 786 973 786 1095 c 1
 786 1193 723 1270 588 1270 c 1
 451 1270 393 1190 393 1095 c 1xec
588 1489 m 1
 864 1489 1055 1324 1055 1095 c 1xec
 1055 919 924 840 867 802 c 1
 973 774 1112 619 1112 433 c 1
 1112 128 877 -28 586 -28 c 1
 263 -28 68 161 68 433 c 1xf2
 68 614 213 778 313 802 c 1
 254 836 125 927 125 1095 c 1
 125 1332 307 1489 588 1489 c 1
EndSplineSet
EndChar
StartChar: nine
Encoding: 25 57 25
Width: 1177
Flags: HW
HStem: 0 21G<340 626.725> 554 242<423.6 647.694> 1248 236<416.4 737.5>
VStem: 107 269<865.8 1167.4> 797 268<874.8 1193.3>
Back
282.624 1052.67 m 1
 282.624 890.88 409.6 751.616 587.776 751.616 c 1
 765.952 751.616 882.688 899.072 882.688 1048.58 c 1
 882.688 1218.56 745.472 1341.44 585.729 1341.44 c 1
 401.408 1341.44 282.624 1193.98 282.624 1052.67 c 1
724.992 632.832 m 1
 679.936 614.4 647.168 602.112 587.776 602.112 c 0
 339.968 602.112 133.12 798.72 133.12 1052.67 c 1
 133.12 1259.52 311.296 1490.94 589.824 1490.94 c 1
 856.064 1490.94 1032.19 1267.71 1032.19 1050.62 c 1
 1032.19 845.824 911.36 675.84 864.256 589.824 c 1
 509.952 -55.2959 l 9
 382.976 20.4805 l 17
 724.992 632.832 l 1
EndSplineSet
Fore
376 1027 m 1
 376 903 462 796 590 796 c 1
 718 796 797 909 797 1023 c 1
 797 1154 703 1248 588 1248 c 1
 456 1248 376 1135 376 1027 c 1
638 559 m 1
 635 556 588 554 584 554 c 0
 299 554 107 753 107 1027 c 1
 107 1252 302 1484 590 1484 c 1
 870 1484 1065 1261 1065 1025 c 1
 1065 792 950 636 900 532 c 1
 626.725 0 l 1
 340 0 l 1
 638 559 l 1
EndSplineSet
EndChar
StartChar: less
Encoding: 28 60 28
Width: 864
Flags: HW
VStem: 45 750<636 1237>
Back
581.632 22.5283 m 1
 73.7275 634.88 l 1
 581.632 1234.94 l 1
 780.288 1234.94 l 1
 270.336 632.832 l 1
 780.288 22.5283 l 1
 581.632 22.5283 l 1
EndSplineSet
Fore
463 24 m 1
 45 636 l 1
 463 1237 l 1
 795 1237 l 1
 376 633 l 1
 793 24 l 1
 463 24 l 1
EndSplineSet
EndChar
StartChar: equal
Encoding: 29 61 29
Width: 907
Flags: HW
HStem: 309 240<55 856> 676 239<55 856>
Back
55.2959 499.712 m 1
 856.064 499.712 l 1
 856.064 358.4 l 1
 55.2959 358.4 l 1
 55.2959 499.712 l 1
55.2959 866.304 m 1
 856.064 866.304 l 1
 856.064 724.992 l 1
 55.2959 724.992 l 1
 55.2959 866.304 l 1
EndSplineSet
Fore
55 549 m 1
 856 549 l 1
 856 309 l 1
 55 309 l 1
 55 549 l 1
55 915 m 1
 856 915 l 1
 856 676 l 1
 55 676 l 1
 55 915 l 1
EndSplineSet
EndChar
StartChar: greater
Encoding: 30 62 30
Width: 864
Flags: HW
VStem: 55 752<20 636>
Back
280.576 20.4805 m 1
 81.9199 20.4805 l 1
 589.824 632.832 l 1
 81.9199 1234.94 l 1
 280.576 1234.94 l 1
 786.432 634.88 l 1
 280.576 20.4805 l 1
EndSplineSet
Fore
393 20 m 1
 55 20 l 1
 477 632 l 1
 55 1235 l 1
 394 1235 l 1
 807 636 l 1
 393 20 l 1
EndSplineSet
EndChar
StartChar: question
Encoding: 31 63 31
Width: 1034
Flags: HW
HStem: -33 328<390 625.3> 1253 244<362.3 626.2>
VStem: 343 328<14 249.3> 371 268<399 773.1> 702 281<787.2 1247.4>
Back
264.745 1093.14 m 0
 264.745 1199.21 373.787 1289.56 508.14 1289.56 c 4
 642.494 1289.56 751.534 1199.21 751.534 1093.14 c 0
 751.534 987.072 642.494 900.987 508.14 900.987 c 0
 373.787 900.987 264.745 987.072 264.745 1093.14 c 0
51.2402 1093.14 m 0
 51.2402 1314.71 254.018 1494.53 503.869 1494.53 c 0
 753.72 1494.53 956.498 1314.71 956.498 1093.14 c 0
 956.498 871.573 753.72 691.753 503.869 691.753 c 0
 254.018 691.753 51.2402 871.573 51.2402 1093.14 c 0
EndSplineSet
Fore
639 530 m 1xd8
 639 399 l 1
 371 399 l 1
 371 594 l 0
 371 836 702 858 702 1094 c 1
 702 1212 598 1253 504 1253 c 1
 395 1253 324 1171 315 1069 c 1
 47 1110 l 1
 72 1327 238 1497 500 1497 c 1
 745 1497 983 1362 983 1098 c 1
 983 727 639 717 639 530 c 1xd8
EndSplineSet
Refer: 14 46 N 1 0 0 1 279 0 2
EndChar
StartChar: at
Encoding: 32 64 32
Width: 1737
Flags: HW
HStem: -33 166<449.9 1057> 346 203<746.3 1012.8> 373 219<1284.7 1419.9> 905 189<751.5 989.4> 1323 172<449.9 1298.8>
VStem: 79 200<301.3 1154.1> 472 219<593.2 874> 1045 213<652.4 868.5> 1453 207<636.5 1160.4>
Back
1165.31 212.992 m 1xbf80
 1243.14 110.592 l 17
 1116.16 18.4316 962.56 -34.8164 794.624 -34.8164 c 0
 370.688 -34.8164 30.7197 307.2 30.7197 731.136 c 0
 30.7197 1153.02 370.688 1495.04 794.624 1495.04 c 0
 1216.51 1495.04 1558.53 1153.02 1558.53 731.136 c 0
 1558.53 555.008 1411.07 417.792 1273.86 417.792 c 0xbf80
 1200.13 417.792 1112.06 460.8 1058.82 518.145 c 1
 999.424 438.272 901.12 389.12 794.624 389.12 c 0xdf80
 606.208 389.12 452.608 542.72 452.608 731.136 c 0
 452.608 917.504 606.208 1071.1 794.624 1071.1 c 0
 983.04 1071.1 1118.21 909.312 1118.21 731.136 c 0
 1118.21 645.12 1185.79 546.816 1267.71 546.816 c 0
 1351.68 546.816 1429.5 626.688 1429.5 731.136 c 0
 1429.5 1071.1 1153.02 1368.06 794.624 1368.06 c 0
 436.224 1368.06 157.696 1071.1 157.696 727.04 c 0
 157.696 385.024 436.224 92.1602 794.624 92.1602 c 0
 921.6 92.1602 1069.06 145.408 1165.31 212.992 c 1xbf80
581.632 731.136 m 0
 581.632 606.208 679.936 516.096 794.624 516.096 c 0xdf80
 917.504 516.096 993.28 614.4 993.28 731.136 c 0
 993.28 841.729 897.024 946.176 794.624 946.176 c 0
 684.032 946.176 581.632 849.92 581.632 731.136 c 0
EndSplineSet
Fore
1224 260 m 1xbf80
 1336 113 l 17
 1206 21 1076 -33 875 -33 c 0
 433 -33 79 300 79 731 c 0
 79 1161 433 1495 875 1495 c 0
 1315 1495 1660 1174 1660 760 c 0
 1660 542 1508 373 1355 373 c 0xbf80
 1286 373 1203 412 1153 500 c 1
 1091 388 987 346 875 346 c 0xdf80
 653 346 472 519 472 731 c 0
 472 930 653 1094 875 1094 c 0
 1098 1094 1258 928 1258 746 c 0
 1258 674 1300 592 1351 592 c 0
 1404 592 1453 665 1453 760 c 0
 1453 1068 1201 1323 875 1323 c 0
 548 1323 279 1056 279 729 c 0
 279 400 548 133 875 133 c 0
 1015 133 1154 199 1224 260 c 1xbf80
691 731 m 0
 691 625 776 549 875 549 c 0xdf80
 981 549 1045 639 1045 745 c 0
 1045 840 963 905 875 905 c 0
 780 905 691 841 691 731 c 0
EndSplineSet
EndChar
StartChar: m
Encoding: 77 109 33
Width: 1575
Flags: HWO
HStem: 0 21G<119 377 666 924 1212 1470> 868 234<477 652.3 1013 1198>
VStem: 119 258<0 800.3 915 1073> 666 258<0 740> 1212 258<0 800.3>
Back
346 862 m 5
 390.825 954.286 506 1102 636 1102 c 4
 766 1102 924 1018 924 539 c 4
 924 0 l 5
 666 0 l 4
 666 539 l 4
 666 740 622 868 522 868 c 5
 422 868 378 740 378 539 c 4
 378 0 l 5
EndSplineSet
Fore
924 0 m 1
 666 0 l 0
 666 539 l 0
 666 740 636 868 521 868 c 1
 405 868 377 740 377 539 c 0
 377 0 l 9
 119 0 l 1
 119 1073 l 1
 377 1073 l 1
 377 915 l 17
 418 986 516 1102 646 1102 c 0
 849 1102 884.247 880.963 892 862 c 1
 936.825 954.286 1052 1102 1182 1102 c 0
 1353 1102 1470 954 1470 668 c 0
 1470 0 l 1
 1212 0 l 0
 1212 539 l 0
 1212 740 1182 868 1068 868 c 1
 954 868 924 740 924 539 c 0
 924 0 l 1
EndSplineSet
EndChar
StartChar: n
Encoding: 78 110 34
Width: 1121
Flags: HW
HStem: 0 21G<119 377 756 1014> 866.89 235.11<515.9 694>
VStem: 119 258<0 810 912 1073> 756 258<0 894.5>
Back
270.336 0 m 9
 118.784 0 l 1
 118.784 1073.15 l 1
 270.336 1073.15 l 1
 270.336 921.6 l 17
 339.968 999.424 417.792 1095.68 563.2 1095.68 c 0
 819.2 1095.68 905.216 880.64 905.216 622.592 c 0
 905.216 0 l 1
 753.664 0 l 0
 753.664 618.496 l 0
 753.664 790.528 684.032 958.464 573.44 958.464 c 1
 446.464 958.464 270.336 831.488 270.336 659.456 c 0
 270.336 0 l 9
EndSplineSet
Fore
377 0 m 9
 119 0 l 1
 119 1074 l 1
 377 1074 l 1
 377 912 l 17
 434 1016 558 1102 700 1102 c 0
 843 1102 1014 953 1014 668 c 1
 1014 0 l 1
 756 0 l 0
 756 537 l 2
 756 812 684 866.89 576 866.89 c 0
 468 866.89 377 810 377 536 c 2
 377 0 l 9
EndSplineSet
EndChar
StartChar: o
Encoding: 79 111 35
Width: 1105
Flags: HMW
Back
92.1602 536.576 m 0
 92.1602 851.968 241.664 1093.63 507.904 1093.63 c 0
 774.144 1093.63 923.648 851.968 923.648 536.576 c 0
 923.648 221.184 774.144 -28.6719 507.904 -28.6719 c 1
 241.664 -28.6719 92.1602 221.184 92.1602 536.576 c 0
245.76 536.576 m 0
 245.76 339.968 327.68 106.496 507.904 106.496 c 0
 700.416 106.496 770.048 339.968 770.048 536.576 c 0
 770.048 733.184 688.128 958.464 507.904 958.464 c 0
 327.68 958.464 245.76 733.184 245.76 536.576 c 0
EndSplineSet
Fore
344 537 m 0
 344 276 450 206 566 206 c 0
 681 206 788 276 788 537 c 1
 788 798 681 866 566 866 c 1
 450 866 344 798 344 537 c 0
92 537 m 0
 92 879 261 1100 565 1100 c 0
 870 1100 1036 879 1036 537 c 0
 1036 195 870 -29 565 -29 c 1
 261 -29 92 189 92 537 c 0
EndSplineSet
KernsSLIFO: 42 -26 0 0 44 -53 0 0
EndChar
StartChar: p
Encoding: 80 112 36
Width: 1132
Flags: HW
HStem: -28 234<533.2 713.2> 866 234<533.2 717.1>
VStem: 119 258<-426 157 917 1073> 803 260<245.8 855.5>
Back
270.336 -425.984 m 17
 118.784 -425.984 l 1
 118.784 1073.15 l 1
 270.336 1073.15 l 1
 270.336 899.072 l 17
 327.68 995.328 405.504 1091.58 550.912 1091.58 c 0
 802.816 1091.58 923.648 823.296 923.648 540.672 c 0
 923.648 258.048 835.584 -28.6719 512 -28.6719 c 1
 348.16 -28.6719 270.336 139.264 270.336 139.264 c 0
 270.336 139.264 270.336 -205.537 270.336 -425.984 c 17
770.048 536.576 m 0
 770.048 770.048 688.128 956.416 561.152 956.416 c 1
 421.888 956.416 266.24 794.624 266.24 536.576 c 1
 266.24 245.76 409.6 106.496 522.24 106.496 c 0
 671.744 106.496 770.048 262.144 770.048 536.576 c 0
EndSplineSet
Fore
377 -426 m 17
 119 -426 l 1
 119 1073 l 1
 377 1073 l 1
 377 917 l 17
 446 1026 568 1100 684 1100 c 0
 948 1100 1063 836 1063 532 c 0
 1063 228 946 -28 684 -28 c 1
 568 -28 446 48 377 157 c 1
 377 -426 l 17
803 537 m 0
 803 782 688 866 591 866 c 1
 494 866 369 790 369 537 c 1
 369 282 494 206 591 206 c 0
 685 206 803 313 803 537 c 0
EndSplineSet
EndChar
StartChar: q
Encoding: 81 113 37
Width: 1132
Flags: HW
HStem: -28 234<423.8 603.8> 866 234<419.9 603.8>
VStem: 74 260<245.8 855.5> 760 258<-209.8 157 917 1073>
Back
233.472 536.576 m 0
 233.472 262.144 335.872 106.496 485.376 106.496 c 0
 598.016 106.496 741.376 245.76 741.376 536.576 c 1
 741.376 794.624 585.729 956.416 446.464 956.416 c 1
 319.488 956.416 233.472 770.048 233.472 536.576 c 0
888.832 -198.656 m 2
 888.832 -278.528 917.504 -313.344 1007.62 -313.344 c 1
 1007.62 -448.512 l 1
 837.632 -448.512 737.28 -380.928 737.28 -204.8 c 0
 737.28 -199.234 737.28 133.698 737.28 139.264 c 1
 737.28 139.264 659.456 -28.6719 495.616 -28.6719 c 1
 172.032 -28.6719 83.9678 258.048 83.9678 540.672 c 0
 83.9678 823.296 204.8 1091.58 456.704 1091.58 c 0
 602.112 1091.58 675.84 995.328 737.28 899.072 c 9
 737.28 1073.15 l 1
 888.832 1073.15 l 1
 888.832 -198.656 l 2
EndSplineSet
Fore
760 -141 m 0
 760 157 l 1
 691 48 569 -28 453 -28 c 1
 191 -28 74 228 74 532 c 0
 74 836 189 1100 453 1100 c 0
 569 1100 691 1026 760 917 c 9
 760 1073 l 1
 1018 1073 l 1
 1018 -137 l 0
 1018 -193 1034 -211 1125 -211 c 1
 1125 -449 l 1
 888 -449 760 -359 760 -141 c 0
334 537 m 0
 334 313 452 206 546 206 c 0
 643 206 768 282 768 537 c 1
 768 790 643 866 546 866 c 1
 449 866 334 782 334 537 c 0
EndSplineSet
EndChar
StartChar: r
Encoding: 82 114 38
Width: 858
Flags: HW
HStem: 0 21G<122 380> 1053 20G<122 380> 1082 20G<589 663.5>
VStem: 122 258<0 731.1 912 1073>
Back
638.976 907.264 m 1
 616.448 921.6 544.768 948.224 509.952 948.224 c 1
 393.216 948.224 270.336 786.432 270.336 677.888 c 2
 270.336 0 l 17
 118.784 0 l 1
 118.784 1073.15 l 1
 270.336 1073.15 l 1
 270.336 913.408 l 17
 323.584 1007.62 419.84 1085.44 499.712 1085.44 c 0
 561.152 1085.44 655.36 1060.86 704.512 1030.14 c 1
 638.976 907.264 l 1
EndSplineSet
Fore
736 807 m 1
 713 820 627 868 580 868 c 1
 425 868 380 690 380 553 c 1
 380 0 l 17
 122 0 l 1
 122 1073 l 1
 380 1073 l 1
 380 912 l 17
 437 1019 549 1102 629 1102 c 0
 698 1102 778 1060 833 1008 c 1
 736 807 l 1
EndSplineSet
KernsSLIFO: 124 -33 0 0
EndChar
StartChar: s
Encoding: 83 115 39
Width: 958
Flags: HW
HStem: -29 230<377.7 588.3> 869.811 230.007<409.6 586.4>
VStem: 123.727 248.273<662.058 879.158> 636.858 248.442<185.8 418.5>
Back
458.752 491.52 m 0
 299.893 543.455 110.592 614.4 110.592 798.72 c 0
 110.592 983.04 258.048 1097.73 458.752 1097.73 c 0
 667.648 1097.73 790.528 978.944 813.056 870.4 c 1
 671.744 841.729 l 0
 649.216 911.36 585.729 962.561 460.8 962.561 c 0
 315.392 962.561 264.192 897.024 264.192 804.864 c 0
 264.192 692.224 393.216 661.504 460.8 636.928 c 0
 611.789 582.023 829.44 499.712 829.44 296.96 c 0
 829.44 86.0156 675.84 -28.6719 462.848 -28.6719 c 0
 249.856 -28.6719 126.976 69.6318 86.0156 217.088 c 1
 227.328 243.712 l 1
 249.856 155.648 327.68 106.496 458.752 106.496 c 0
 598.016 106.496 675.84 172.032 675.84 296.96 c 0
 675.84 401.408 565.248 456.704 458.752 491.52 c 0
EndSplineSet
Fore
341.726 491 m 0
 199.873 565.947 123.727 622 123.727 809.999 c 0
 123.727 988 270 1099.82 494 1099.82 c 0
 718 1099.82 851.362 944.698 874 801 c 1
 634 758 l 1
 618 852 566 869.811 498 869.811 c 0
 430 869.811 372 857 372 783.141 c 0
 372 690 500.229 684.305 664.615 604 c 0
 812 532 885.301 444 885.301 270 c 0
 885.301 94 700 -29 485 -29 c 0
 265 -29 120 98 78 290 c 1
 310 329 l 1
 325 245 402 201 483 201 c 0
 564 201 636.858 211 636.858 295 c 0
 636.858 390 478 419 341.726 491 c 0
EndSplineSet
EndChar
StartChar: t
Encoding: 84 116 40
Width: 706
Flags: HW
HStem: -15 21G<582 621> 844 229<72 213 471 625>
VStem: 213 258<212 844 1073 1323>
Back
253.952 937.984 m 0
 112.64 937.984 l 1
 112.64 1073.15 l 1
 253.952 1073.15 l 0
 253.952 1323.01 l 1
 405.504 1323.01 l 0
 405.504 1073.15 l 0
 602.112 1073.15 l 1
 602.112 937.984 l 1
 405.504 937.984 l 0
 405.504 215.04 l 0
 405.504 110.592 477.184 98.3037 522.24 98.3037 c 1
 591.872 98.3037 l 1
 591.872 -28.6719 l 1
 522.24 -28.6719 l 1
 317.44 -28.6719 253.952 49.1523 253.952 210.944 c 1
 253.952 937.984 l 0
EndSplineSet
Fore
213 844 m 0
 72 844 l 1
 72 1073 l 1
 213 1073 l 0
 213 1323 l 1
 471 1323 l 0
 471 1073 l 0
 625 1073 l 1
 625 844 l 1
 471 844 l 0
 471 297 l 0
 471 212 537 202 582 202 c 1
 621 202 l 1
 621 -15 l 1
 582 -15 l 1
 296 -15 213 85 213 293 c 1
 213 844 l 0
EndSplineSet
EndChar
StartChar: u
Encoding: 85 117 41
Width: 1112
Flags: HW
HStem: -29 235.11<428 606.1> 1053 20G<108 366 744 1003>
VStem: 108 258<178.5 1073> 745 258<0 161 180.8 1073>
Back
743.424 1073.15 m 9
 894.976 1073.15 l 1
 894.976 0 l 1
 743.424 0 l 1
 743.424 139.264 l 17
 704.512 79.8721 636.928 -22.5283 491.521 -22.5283 c 0
 235.52 -22.5283 108.544 192.512 108.544 450.56 c 0
 108.544 1073.15 l 1
 260.096 1073.15 l 0
 260.096 454.656 l 0
 260.096 282.624 370.688 114.688 481.28 114.688 c 1
 608.256 114.688 743.424 241.664 743.424 413.696 c 0
 743.424 1073.15 l 9
EndSplineSet
Fore
1003 0 m 2
 745 0 l 2
 745 161 l 17
 688 57 565 -29 428 -29 c 0
 236 -29 108 156.014 108 535 c 1
 108 1073 l 1
 366 1073 l 0
 366 536 l 2
 366 261 466 206.11 546 206.11 c 0
 626 206.11 744 263 744 537 c 2
 744 1073 l 9
 1003 1073 l 1
 1003 0 l 2
EndSplineSet
EndChar
StartChar: v
Encoding: 86 118 42
Width: 1060
Flags: HW
HStem: 0 21G<411 624> 1053 20G<72 343 716 963>
VStem: 72 891<1073 1073>
Back
436.224 0 m 1
 71.6797 1073.15 l 1
 231.424 1073.15 l 1
 512 194.56 l 1
 798.72 1073.15 l 1
 956.416 1073.15 l 1
 587.776 0 l 1
 436.224 0 l 1
EndSplineSet
Fore
411 0 m 1
 72 1073 l 1
 343 1073 l 1
 523 387 l 1
 716 1073 l 1
 963 1073 l 1
 624 0 l 1
 411 0 l 1
EndSplineSet
KernsSLIFO: 124 -45 0 0
EndChar
StartChar: w
Encoding: 87 119 43
Width: 1449
Flags: HW
HStem: 0 21G<372 573 851 1070> 1053 20G<57 312 1142 1385>
Back
688.128 829.44 m 1
 460.8 0 l 1
 344.064 0 l 1
 57.3438 1073.15 l 1
 206.848 1073.15 l 1
 403.456 282.624 l 1
 616.448 1064.96 l 1
 759.808 1064.96 l 17
 972.8 282.624 l 1
 1169.41 1073.15 l 17
 1318.91 1073.15 l 1
 1032.19 0 l 1
 909.312 0 l 1
 688.128 829.44 l 1
EndSplineSet
Fore
715 664 m 1
 573 0 l 1
 372 0 l 1
 57 1073 l 1
 312 1073 l 1
 480 404 l 1
 610 1077 l 1
 842 1077 l 17
 972 407 l 1
 1142 1073 l 17
 1385 1073 l 1
 1070 0 l 1
 851 0 l 1
 715 664 l 1
EndSplineSet
EndChar
StartChar: x
Encoding: 88 120 44
Width: 1054
Flags: HW
HStem: 0 21G<27 334 714 1021> 1053 20G<45 335 712 1026>
VStem: 27 999<0 1073>
Back
860.16 0 m 1
 690.176 0 l 9
 448.512 440.32 l 1
 219.136 0 l 1
 43.0078 0 l 9
 356.352 538.624 l 1
 45.0557 1073.15 l 9
 215.04 1073.15 l 1
 448.512 638.976 l 0
 681.984 1073.15 l 1
 851.968 1073.15 l 1
 540.672 542.72 l 0
 860.16 0 l 1
EndSplineSet
Fore
1021 0 m 1
 714 0 l 9
 524 335 l 1
 334 0 l 1
 27 0 l 9
 368 536 l 1
 45 1073 l 9
 335 1073 l 1
 525 743 l 0
 712 1073 l 1
 1026 1073 l 1
 680 545 l 0
 1021 0 l 1
EndSplineSet
EndChar
StartChar: y
Encoding: 89 121 45
Width: 1106
Flags: HW
HStem: -465 232<407.3 690.7> -29 235.11<428 606.1> 1053 20G<108 366 744 1003>
VStem: 108 258<178.5 1073> 745 258<-200.7 161 180.8 1073>
Back
283.376 -183.838 m 0
 325.527 -261.986 409.975 -313.344 501.76 -313.344 c 0
 626.688 -313.344 743.424 -225.28 743.424 -32.7676 c 0
 743.424 145.408 l 17
 708.608 83.9678 636.928 -16.3838 491.521 -16.3838 c 0
 235.52 -16.3838 108.544 198.656 108.544 456.704 c 0
 108.544 1073.15 l 1
 260.096 1073.15 l 0
 260.096 460.8 l 0
 260.096 288.768 370.688 120.832 481.28 120.832 c 1
 608.256 120.832 743.424 247.808 743.424 419.84 c 0
 743.424 1073.15 l 9
 894.976 1073.15 l 1
 894.976 425.984 l 1
 894.976 -18.4316 l 2
 894.976 -290.816 712.704 -448.512 509.952 -448.512 c 1
 328.475 -448.512 217.541 -351.877 160.556 -247.556 c 1
 283.376 -183.838 l 0
EndSplineSet
Fore
1003 -29 m 2
 1003 -246 770 -465 555 -465 c 1
 344 -465 198 -348 140 -224 c 1
 344 -112 l 0
 368 -182 440 -233 549 -233 c 0
 658 -233 745 -168 745 -59 c 1
 745 161 l 17
 688 57 565 -29 428 -29 c 0
 236 -29 108 156.014 108 535 c 1
 108 1073 l 1
 366 1073 l 0
 366 536 l 2
 366 261 466 206.11 546 206.11 c 0
 626 206.11 744 263 744 537 c 2
 744 1073 l 9
 1003 1073 l 1
 1003 29 l 1
 1003 -29 l 2
EndSplineSet
EndChar
StartChar: z
Encoding: 90 122 46
Width: 1005
Flags: HW
HStem: 0 240<483 889> 834 239<115 502>
VStem: 66 855<0 1073>
Back
331.776 141.312 m 1
 866.304 141.312 l 1
 866.304 0 l 1
 79.8721 0 l 1
 624.64 931.84 l 2
 100.352 931.84 l 1
 100.352 1073.15 l 1
 876.544 1073.15 l 1
 331.776 141.312 l 1
EndSplineSet
Fore
483 240 m 1
 889 240 l 1
 889 0 l 1
 66 0 l 1
 502 834 l 2
 115 834 l 1
 115 1073 l 1
 921 1073 l 1
 483 240 l 1
EndSplineSet
EndChar
StartChar: Oslash
Encoding: 151 216 53
Width: 2478
Flags: HW
HStem: -29 242<640.457 1058.8> 1249 240<363.5 786.865>
VStem: 100 281<626.144 1031.2> 1047 282<480 893.883>
Back
533.795 -28.6719 m 5
 247.128 -28.6719 l 5
 901.745 1515.5 l 4
 1169.41 1515.52 l 5
 533.795 -28.6719 l 5
1046.53 753.664 m 0
 1046.53 980.853 972.04 1249.28 714.752 1249.28 c 0
 459.416 1249.28 382.976 980.853 382.976 753.664 c 1
 382.976 506.839 461.042 212.992 714.752 212.992 c 1
 970.412 212.992 1046.53 506.839 1046.53 753.664 c 0
100.352 753.664 m 1
 100.352 1074.34 264.192 1488.9 714.752 1488.9 c 1
 1167.39 1488.9 1329.15 1074.34 1329.15 753.664 c 1
 1329.15 412.53 1165.23 -28.6719 714.752 -28.6719 c 1
 266.349 -28.6719 100.352 412.53 100.352 753.664 c 1
EndSplineSet
Fore
545 -6 m 1
 532 -29 l 1
 248 -29 l 1
 315 135 l 1
 172 279 100 549 100 727 c 1
 100 1096 270 1489 721 1489 c 1
 777 1489 839 1482 881 1466 c 1
 889 1493 l 0
 1161 1493 l 1
 1100 1348 l 1
 1272 1192 1329 952 1329 727 c 1
 1329 463 1190 -29 715 -29 c 1
 657 -29 596 -20 545 -6 c 1
637 223 m 1
 664 219 671 213 713 213 c 1
 979 213 1047 537 1047 727 c 0
 1047 853 1034 956 985 1067 c 1
 637 223 l 1
440 426 m 1
 784 1241 l 1
 764 1243 758 1249 721 1249 c 1
 446 1249 381 961 381 727 c 1
 381 662 403 506 440 426 c 1
EndSplineSet
EndChar
StartChar: Thorn
Encoding: 157 222 57
Width: 1384
Flags: HW
HStem: 0 21G<135 403> 287 239<403 652.6> 961 238<403 604.5> 1436 20G<135 403>
VStem: 135 268<0 287 526 961 1199 1456> 805 267<514.7 997>
Back
292.454 477.103 m 1
 562.954 477.103 859.341 530.35 859.341 749.731 c 1
 859.341 984.023 511.836 1009.58 292.454 1009.58 c 1
 292.454 477.103 l 1
135.168 1456.13 m 0
 292.454 1456.13 l 1
 292.454 1150.16 l 1
 667.32 1150.16 1016.63 1067.09 1016.63 749.731 c 0
 1016.63 406.814 660.931 336.527 292.454 336.527 c 1
 292.454 0 l 1
 135.168 0 l 1
 135.168 1456.13 l 0
EndSplineSet
Fore
403 526 m 1
 595 526 805 569 805 750 c 1
 805 940 558 961 403 961 c 1
 403 526 l 1
135 1456 m 0
 403 1456 l 1
 403 1199 l 1
 749 1199 1072 1106 1072 750 c 0
 1072 365 743 287 403 287 c 1
 403 0 l 1
 135 0 l 1
 135 1456 l 0
EndSplineSet
EndChar
StartChar: germandbls
Encoding: 158 223 58
Width: 1261
Flags: HW
HStem: -29 224<534.5 815.3> 649 195<535 702.7> 1294 234<453.106 820.5>
VStem: 848 254<832.5 1271.9> 907 251<204 571.9>
Back
164.188 1151.75 m 1
 252.784 1347.93 389.775 1478.72 645.018 1478.72 c 1
 893.932 1478.72 1098.42 1328.95 1089.99 1073.71 c 1
 1089.99 879.637 889.713 778.384 769.475 746.742 c 1
 883.385 719.319 1106.86 601.19 1106.86 398.685 c 1
 1106.86 120.238 891.822 -29.5322 600.72 -29.5322 c 1
 535.327 -29.5322 482.591 -10.5479 415.089 23.2041 c 9
 505.795 145.552 l 17
 539.546 132.894 571.188 109.69 600.72 109.69 c 1
 796.897 109.69 959.447 196.178 959.447 398.685 c 1
 959.447 548.454 737.833 679.24 541.655 679.24 c 1
 505.795 679.24 l 2
 493.138 679.24 480.481 679.24 463.605 672.911 c 1
 463.605 824.791 l 1
 478.372 820.572 488.919 820.572 499.466 820.572 c 2
 541.655 820.572 l 1
 712.52 820.572 940.462 917.606 940.462 1073.71 c 1
 940.462 1259.34 826.43 1341.6 645.018 1341.6 c 1
 440.402 1341.6 349.573 1238.24 305.274 1105.35 c 1
 235.663 902.84 248.32 310.088 229.335 0 c 1
 81.9199 0 l 1
 113.562 360.714 88.248 993.546 164.188 1151.75 c 1
EndSplineSet
Fore
159 1259.55 m 1xf0
 245.542 1426.81 396.911 1528 645 1528 c 1
 924 1528 1102 1338 1102 1073 c 1xf0
 1102 881 1003 792 933 767 c 1
 1003 753 1158 603 1158 399 c 1
 1158 111 939 -29 618 -29 c 1
 532 -29 456 -20 415 23 c 9
 513 226 l 17
 530 210 548 195 593 195 c 1
 764 195 907 249 907 399 c 1xe8
 907 532 770 649 541 649 c 1
 506 649 l 2
 516 649 507 651 520 694 c 1
 535 844 l 1
 664 844 848 888 848 1073 c 0
 848 1226 780 1294 645 1294 c 1
 497.389 1294 422.288 1230.21 379 1139.71 c 0
 316 1008 351 159 295 0 c 1
 62 0 l 1
 129 159 59.9814 1074 159 1259.55 c 1xf0
EndSplineSet
EndChar
StartChar: ae
Encoding: 165 230 63
Width: 1764
Flags: HW
Back
208 294 m 0xb8
 134 294 110 236 110 173 c 0
 110 110 134 52 208 52 c 0
 270 52 306 108 306 173 c 1
 306 238 270 294 208 294 c 0xb8
347.172 444.129 m 1
 381.085 499.773 413.985 534 484 534 c 0
 614 534 667 416 667 262 c 0
 667 251.234 665.469 240.156 665.469 229 c 1
 377.297 229 l 1xd8
 377.297 182 389 52 484 52 c 0
 530.016 52 542.375 79.3281 563.422 118.484 c 0
 628.344 91.6094 l 0
 594.984 27.0625 559.422 -14 484 -14 c 0
 405.844 -14 380.021 27.0371 346 80 c 1
 320 34 302 -14 208 -14 c 0
 98 -14 36 68 36 173 c 0
 36 278 108 360 208 360 c 0
 270.223 360 289 337 308 309 c 1
 308.915 317.082 305.915 330.206 307.264 337.988 c 1
 307.264 409.284 281.354 466 210 466 c 0
 164 466 142 450 120 428 c 9
 105.18 447.5 82 478 82 478 c 0
 116 506 140 532 210 532 c 0
 273.279 532 313.223 501.687 347.172 444.129 c 1
377.364 295 m 1
 591.344 295 l 1
 582.672 381.516 562.031 468 484 468 c 0
 404 468 379 369 377.364 295 c 1
EndSplineSet
Fore
535 524 m 0
 413 524 332 442 332 356 c 0
 332 270 413 191 535 191 c 0
 657 191 727 270 727 356 c 0
 727 442 657 524 535 524 c 0
1208 201 m 0
 1267.44 201 1324.31 221.003 1362 267.231 c 1
 1590 169.169 l 1
 1504.38 38.3516 1341.22 -29 1208 -29 c 0
 1125.35 -29 1046.91 -6.09691 978 35.2299 c 1
 978 0 l 1
 721 0 l 1
 721 136 l 1
 696 58 594 -29 454 -29 c 0
 252 -29 90 136 90 358 c 0
 90 580 252 741 450 741 c 0
 589.464 741 693.598 654.664 719.107 576.896 c 1
 719.839 578.715 719 627 719.397 658 c 1
 719.397 862 572 897 472 897 c 0
 372 897 310 868 256 844 c 1
 153 1008 l 1
 212 1056 365 1102 472 1102 c 0
 625.406 1102 772.642 1058.8 868.339 949.324 c 1
 954.483 1042.73 1070.82 1098 1199 1098 c 0
 1466 1098 1656 860 1656 537 c 2
 1656 469 l 1
 992 469 l 1
 997.084 240.236 1132.18 201 1208 201 c 0
993 651 m 1
 1406 651 l 1
 1397 763 1326 868 1199 868 c 0
 1073 868 1001 760 993 651 c 1
EndSplineSet
EndChar
StartChar: igrave
Encoding: 171 236 68
Width: 550
Flags: HW
HStem: 0 21G<139 408> 1053 20G<139 408> 1146 434<161 227>
VStem: -15 386<1268 1432> 139 269<0 1073>
Fore
139 1073 m 1xe8
 408 1073 l 1
 408 0 l 1
 139 0 l 1
 139 1073 l 1xe8
EndSplineSet
Refer: 119 96 N 1 0 0 1 -100 14 2
EndChar
StartChar: iacute
Encoding: 172 237 69
Width: 544
Flags: HW
HStem: 0 21G<139 408> 1053 20G<139 408> 1144 434<317 382>
VStem: 139 269<0 1073> 173 386<1266 1430>
Fore
139 1073 m 1xf0
 408 1073 l 1
 408 0 l 1
 139 0 l 1
 139 1073 l 1xf0
EndSplineSet
Refer: 153 180 N 1 0 0 1 66 12 2
EndChar
StartChar: icircumflex
Encoding: 173 238 70
Width: 546
Flags: HW
HStem: 0 21G<139 408> 1053 20G<139 408> 1146 344<156 676>
VStem: -128 804<1146 1149> 139 269<0 1073>
Fore
139 1073 m 1xe8
 408 1073 l 1
 408 0 l 1
 139 0 l 1
 139 1073 l 1xe8
EndSplineSet
Refer: 117 94 N 1 0 0 1 -250 -2 2
EndChar
StartChar: idieresis
Encoding: 174 239 71
Width: 548
Flags: HW
HStem: 0 21G<139 408> 1053 20G<139 408> 1159 328<-69 166.3 402 637.3>
VStem: -116 328<1206 1441.3> 139 269<0 1073> 355 328<1206 1441.3>
Fore
139 1073 m 1xe8
 408 1073 l 1
 408 0 l 1
 139 0 l 1
 139 1073 l 1xe8
EndSplineSet
Refer: 144 168 N 1 0 0 1 -188 492 2
EndChar
StartChar: eth
Encoding: 175 240 72
Width: 1062
Flags: HW
HStem: -49 229<414.9 635.9> 723 229<369.7 607.6> 1291.57 199.327<169.708 400.212>
VStem: 72 258<218.7 626.9> 692 258<278.5 645.1>
Back
223.232 454.656 m 0
 223.232 223.232 380.928 106.496 481.28 106.496 c 0
 634.88 106.496 765.952 278.528 765.952 454.656 c 1
 765.952 647.168 593.92 790.528 442.368 790.528 c 1
 319.488 790.528 223.232 604.16 223.232 454.656 c 0
673.792 1290.24 m 1
 759.808 1191.94 892.928 983.04 905.216 800.768 c 1
 912.066 700.045 920.203 627.63 917.504 501.76 c 1
 917.504 192.512 727.124 -28.6719 491.521 -28.6719 c 0
 188.416 -28.6719 71.6797 202.752 71.6797 458.752 c 0
 71.6797 716.8 237.568 925.696 452.608 925.696 c 0
 622.592 925.696 673.792 845.824 749.568 778.24 c 1
 749.568 892.928 655.36 1120.26 561.152 1204.22 c 1
 407.552 1060.86 l 1
 309.248 1161.22 l 1
 444.416 1290.24 l 1
 391.168 1308.67 337.92 1314.82 284.672 1314.82 c 0
 245.76 1314.82 206.848 1310.72 169.984 1306.62 c 1
 155.648 1454.08 l 1
 182.272 1456.13 210.944 1456.13 237.568 1456.13 c 0
 350.208 1456.13 460.8 1439.74 565.248 1386.5 c 1
 720.896 1525.76 l 1
 817.152 1417.22 l 1
 673.792 1290.24 l 1
EndSplineSet
Fore
330 467 m 0
 330 276 435 180 502 180 c 0
 605 180 692 322 692 467 c 1
 692 625 577 723 475 723 c 1
 394 723 330 590 330 467 c 0
745 1229 m 1
 822 1139 931 937 942 770 c 1
 949.655 715.136 952.834 666.377 952.834 610.482 c 0
 952.834 578.76 951.81 544.739 950 506 c 1
 950 182 753 -49 508 -49 c 0
 193 -49 72 198 72 471 c 0
 72 748 251 952 483 952 c 0
 586 952 675 866 721 799 c 1
 721 871 643 1049 578 1110 c 1
 489 1028 l 1
 337 1182 l 1
 421 1255 l 1
 394.5 1275 373.279 1291.39 283.5 1291.57 c 0
 282.199 1291.57 l 0
 241.481 1291.57 204.185 1287.86 176 1282 c 1
 156 1475 l 1
 189.332 1488.01 258.355 1490.44 304.5 1490.9 c 0
 308.81 1490.92 l 0
 436.252 1490.92 541.175 1435.53 586 1401 c 1
 705 1512 l 1
 868 1327 l 1
 745 1229 l 1
EndSplineSet
EndChar
StartChar: oslash
Encoding: 183 248 79
Width: 1044
Flags: HW
HStem: -29 230<514.772 722.3> 870 230<390.8 616.047>
VStem: 92 260<447.059 740> 776 260<322.7 636.035>
Back
53.248 -28.6719 m 29
 798.72 1101.82 l 25
 1060.86 1097.73 l 25
 339.968 -28.6719 l 25
 53.248 -28.6719 l 29
92.1602 536.576 m 0
 92.1602 862.404 288.516 1099.78 565.248 1099.78 c 0
 840.669 1099.78 1036.29 862.404 1036.29 536.576 c 0
 1036.29 212.042 840.669 -28.6719 565.248 -28.6719 c 1
 288.516 -28.6719 92.1602 212.042 92.1602 536.576 c 0
352.256 536.576 m 0
 352.256 375.544 446.976 200.704 565.248 200.704 c 0
 690.08 200.704 776.192 375.544 776.192 536.576 c 0
 776.192 697.87 682.111 870.4 565.248 870.4 c 0
 446.976 870.4 352.256 697.87 352.256 536.576 c 0
EndSplineSet
Fore
764 635 m 1
 500 221 l 1
 516 208 541 201 565 201 c 0
 686 201 776 371 776 532 c 0
 776 556 776 598 764 635 c 1
633 850 m 1
 618 860 600 870 578 870 c 0
 434 870 352 692 352 532 c 0
 352 509 356 461 365 442 c 1
 633 850 l 1
53 -29 m 1
 190 178 l 1
 136 254 92 393 92 532 c 1
 92 860 274 1100 578 1100 c 0
 632 1100 723 1079 766 1051 c 1
 798 1102 l 1
 1061 1102 l 1
 934 899 l 1
 995 811 1036 676 1036 532 c 0
 1036 208 836 -29 569 -29 c 1
 508 -29 420 -14 371 18 c 1
 340 -29 l 1
 53 -29 l 1
EndSplineSet
EndChar
StartChar: thorn
Encoding: 189 254 83
Width: 1093
Flags: HW
HStem: 0 21G<119 377> 117 229<437.4 679.2> 1102 229<471.2 671> 1434 20G<119 377>
VStem: 119 258<0 258 1159 1454> 756 258<414.6 1003.5>
Back
270.336 0 m 17
 118.784 0 l 1
 118.784 1454.08 l 1
 270.336 1454.08 l 1
 270.336 1112.06 l 17
 335.872 1206.27 405.504 1284.1 550.912 1284.1 c 0
 802.816 1284.1 923.648 1015.81 923.648 733.184 c 0
 923.648 450.56 835.584 163.84 512 163.84 c 1
 348.16 163.84 270.336 311.296 270.336 311.296 c 0
 270.336 311.296 270.336 121.406 270.336 0 c 17
772.096 729.088 m 0
 772.096 962.561 688.128 1148.93 561.152 1148.93 c 1
 421.888 1148.93 266.24 987.136 266.24 729.088 c 1
 266.24 438.272 409.6 299.008 522.24 299.008 c 0
 671.744 299.008 772.096 454.656 772.096 729.088 c 0
EndSplineSet
Fore
377 0 m 17
 119 0 l 1
 119 1454 l 1
 377 1454 l 1
 377 1159 l 17
 408 1229 500 1331 596 1331 c 0
 864 1331 1014 1043 1014 739 c 0
 1014 430 903 117 570 117 c 1
 468 117 393 227 377 258 c 1
 377 258 377 101 377 0 c 17
756 750 m 0
 756 945 647 1102 567 1102 c 1
 465 1102 369 935 369 751 c 1
 369 496 463 346 557 346 c 0
 651 346 756 492 756 750 c 0
EndSplineSet
EndChar
StartChar: Euro
Encoding: 202 8364 87
Width: 1226
Flags: HW
HStem: 164 229<667.2 844.29> 481 166<125 261 543 805> 760 166<131 261 542 811> 1053 229<639.9 858.3>
Back
259.896 761.856 m 1
 131.072 761.856 l 1
 131.072 897.024 l 1
 283.875 897.024 l 1
 334.093 1068.98 455.209 1196.03 626.688 1196.03 c 0
 786.432 1196.03 847.872 1155.07 942.08 1062.91 c 9
 845.824 966.656 l 2
 788.48 1024 745.472 1060.86 626.688 1060.86 c 1
 542.262 1060.86 478.305 987.761 440.492 897.024 c 1
 710.656 897.024 l 1
 710.656 761.856 l 1
 404.933 761.856 l 1
 402.598 742.933 401.408 724.355 401.408 706.561 c 0
 401.408 685.201 402.559 664.713 404.72 645.12 c 1
 704.512 645.12 l 1
 704.512 509.952 l 1
 439.923 509.952 l 1
 486.666 403.348 566.669 346.112 626.688 346.112 c 0
 712.704 346.112 763.904 362.496 849.92 456.704 c 9
 946.176 360.448 l 1
 878.592 282.624 817.152 210.944 626.688 210.944 c 1
 441.516 210.944 330.388 340.519 283.775 509.952 c 1
 124.928 509.952 l 1
 124.928 645.12 l 1
 260.602 645.12 l 1
 258.894 666.777 258.048 688.671 258.048 710.656 c 0
 258.048 727.88 258.669 744.966 259.896 761.856 c 1
EndSplineSet
Fore
261 760 m 1
 131 760 l 1
 131 926 l 1
 281 926 l 1
 344 1120 514 1282 727 1282 c 0
 864 1282 979 1229 1092 1083 c 9
 936 950 l 17
 889 1008 828 1053 727 1053 c 1
 660 1053 553 999 542 926 c 1
 811 926 l 1
 811 760 l 1
 520 760 l 1
 515.387 755.387 513.891 740.08 513.891 722.158 c 0
 513.891 689.043 519 647 519 647 c 1
 805 647 l 1
 805 481 l 1
 543 481 l 1
 565 426 681 393 727 393 c 0
 813 393 854 393 922 467 c 9
 1096 334 l 1
 1020 241 939 164 727 164 c 1
 497 164 319 311 276 481 c 1
 125 481 l 1
 125 647 l 1
 261 647 l 1
 261 647 258.016 691.255 258.016 724.736 c 0
 258.016 741.477 258.762 755.524 261 760 c 1
EndSplineSet
EndChar
StartChar: A
Encoding: 33 65 88
Width: 1421
Flags: HW
HStem: 0 21G<20 331 1040 1347> 379 246<540 840> 1436 20G<583 839>
Back
651.264 1255.42 m 1
 452.608 620.544 l 1
 851.968 620.544 l 1
 651.264 1255.42 l 1
897.024 505.856 m 1
 399.36 505.856 l 0
 227.328 0 l 0
 61.4404 0 l 1
 585.729 1456.13 l 0
 585.729 1456.13 663.184 1456.13 712.704 1456.13 c 17
 1236.99 0 l 1
 1067.01 0 l 1
 897.024 505.856 l 1
EndSplineSet
Fore
699 1048 m 1
 540 625 l 1
 840 625 l 1
 699 1048 l 1
915 379 m 1
 467 379 l 0
 331 0 l 0
 20 0 l 1
 583 1456 l 1
 839 1456 l 1
 1347 0 l 1
 1040 0 l 1
 915 379 l 1
EndSplineSet
KernsSLIFO: 90 -80 0 0 43 -94 0 0 42 -164 0 0 109 -213 0 0 107 -98 0 0
EndChar
StartChar: B
Encoding: 34 66 89
Width: 1226
Flags: HMW
Back
276.48 706.561 m 1xf4
 276.48 141.312 l 1
 595.968 141.312 l 1
 888.832 141.312 927.744 299.008 927.744 430.08 c 0
 927.744 563.2 835.584 704.512 595.968 704.512 c 1
 569.344 704.512 309.248 706.561 276.48 706.561 c 1xf4
276.48 1316.86 m 1
 276.48 845.824 l 1
 315.392 845.824 481.28 843.776 514.048 843.776 c 1
 837.632 843.776 847.872 1007.62 847.872 1085.44 c 1xf8
 847.872 1173.5 817.152 1314.82 493.568 1314.82 c 1
 462.848 1314.82 313.344 1316.86 276.48 1316.86 c 1
118.784 1456.13 m 1
 493.568 1456.13 l 1
 933.888 1456.13 1007.62 1241.09 1007.62 1085.44 c 1xf8
 1007.62 921.6 862.208 782.336 753.664 782.336 c 1
 999.424 782.336 1083.39 542.72 1083.39 423.936 c 1xf4
 1083.39 286.72 1040.38 0 595.968 0 c 1
 118.784 0 l 1
 118.784 1456.13 l 1
EndSplineSet
Fore
387 639 m 1
 387 240 l 1
 614 240 l 1
 837 240 899 342 899 447 c 0
 899 552 837 639 614 639 c 1
 387 639 l 1
387 1219 m 1
 387 877 l 1
 555 877 l 1
 756 877 811 969 811 1049 c 1
 811 1128 756 1219 555 1219 c 1
 531 1219 416 1219 387 1219 c 1
119 1456 m 1
 555 1456 l 1
 1003 1456 1075 1219 1075 1070 c 1
 1075 916 985 833 870 797 c 1
 1075 747 1163 555 1163 439 c 1
 1163 285 1090 0 644 0 c 5
 119 0 l 1
 119 1456 l 1
EndSplineSet
EndChar
StartChar: C
Encoding: 35 67 90
Width: 1310
Flags: HW
HStem: -33 242<400 862.8> 1257 240<373.4 841.4>
VStem: 90 283<380.9 1095.9>
Back
1136.64 221.184 m 0
 1040.38 73.7275 919.552 -30.7197 690.176 -30.7197 c 1
 282.624 -30.7197 90.1123 354.304 90.1123 724.992 c 1
 90.1123 1105.92 272.384 1495.04 692.224 1495.04 c 0
 915.456 1495.04 1034.24 1400.83 1124.35 1259.52 c 9
 993.28 1193.98 l 2
 933.888 1277.95 811.008 1353.73 692.224 1353.73 c 1
 397.312 1353.73 256 1038.34 256 724.992 c 1
 256 413.696 417.792 110.592 690.176 110.592 c 1
 833.536 110.592 915.456 157.696 1003.52 294.912 c 9
 1055.44 266.158 1136.64 221.184 1136.64 221.184 c 0
EndSplineSet
Fore
1232 310 m 0
 1151 135 1004 -33 725 -33 c 1
 250 -33 90 358 90 754 c 1
 90 1134 258 1497 727 1497 c 0
 979 1497 1151 1343 1220 1187 c 9
 965 1098 l 2
 914 1182 815 1257 727 1257 c 1
 455 1257 373 1017 373 754 c 1
 373 467 475 209 725 209 c 1
 831 209 913 303 973 410 c 9
 1074 371 1232 310 1232 310 c 0
EndSplineSet
EndChar
StartChar: D
Encoding: 36 68 91
Width: 1273
Flags: HW
HStem: 0 240<383 775> 1217 239<383 832.9>
VStem: 115 268<240 1217> 913 283<349 1100.4>
Back
980.992 727.04 m 1
 980.992 1075.2 796.672 1314.82 538.624 1314.82 c 1
 272.384 1314.82 l 1
 272.384 141.312 l 1
 538.624 141.312 l 1
 796.672 141.312 980.992 380.928 980.992 727.04 c 1
1146.88 727.04 m 1
 1146.88 319.488 899.072 0 538.624 0 c 1
 114.688 0 l 1
 114.688 1456.13 l 1
 538.624 1456.13 l 1
 905.216 1456.13 1146.88 1136.64 1146.88 727.04 c 1
EndSplineSet
Fore
913 752 m 1
 913 1020 775 1217 582 1217 c 1
 383 1217 l 1
 383 240 l 1
 582 240 l 1
 775 240 913 442 913 752 c 1
1196 752 m 1
 1196 323 946 0 582 0 c 1
 115 0 l 1
 115 1456 l 1
 582 1456 l 1
 952 1456 1196 1141 1196 752 c 1
EndSplineSet
EndChar
StartChar: E
Encoding: 37 69 92
Width: 1211
Flags: HW
HStem: 0 240<383 1097> 627 239<383 1034> 1217 239<383 1097>
VStem: 115 268<240 627 866 1217>
Back
114.688 1456.13 m 0
 1036.29 1456.13 l 1
 1036.29 1314.82 l 0
 272.384 1314.82 l 0
 272.384 817.152 l 1
 993.28 817.152 l 1
 993.28 675.84 l 0
 272.384 675.84 l 0
 272.384 141.312 l 0
 1036.29 141.312 l 0
 1036.29 0 l 0
 114.688 0 l 1
 114.688 1456.13 l 0
EndSplineSet
Fore
115 1456 m 0
 1097 1456 l 1
 1097 1217 l 0
 383 1217 l 0
 383 866 l 1
 1034 866 l 1
 1034 627 l 0
 383 627 l 0
 383 240 l 0
 1097 240 l 0
 1097 0 l 0
 115 0 l 1
 115 1456 l 0
EndSplineSet
KernsSLIFO: 105 41 0 0
EndChar
StartChar: F
Encoding: 38 70 93
Width: 1191
Flags: HMW
Back
114.688 1456.13 m 1
 1036.29 1456.13 l 1
 1036.29 1314.82 l 25
 272.384 1314.82 l 25
 272.384 817.152 l 1
 993.28 817.152 l 1
 993.28 675.84 l 25
 272.384 675.84 l 1
 272.384 0 l 1
 114.688 0 l 1
 114.688 1456.13 l 1
EndSplineSet
Fore
115 1456 m 1
 1097 1456 l 1
 1097 1217 l 25
 383 1217 l 25
 383 866 l 1
 1034 866 l 1
 1034 627 l 25
 383 627 l 1
 383 0 l 1
 115 0 l 1
 115 1456 l 1
EndSplineSet
EndChar
StartChar: G
Encoding: 39 71 94
Width: 1421
Flags: HW
HStem: -27 238<410.1 1034.1> 567 240<707 1010> 1257 240<409.5 791.7>
VStem: 90 283<431.8 1057.1> 1010 278<386.3 661>
Back
690.176 -28.6719 m 0
 251.904 -28.6719 90.1123 389.12 90.1123 731.136 c 1
 90.1123 1071.1 251.904 1495.04 692.224 1495.04 c 0
 915.456 1495.04 1036.29 1400.83 1126.4 1259.52 c 9
 999.424 1191.94 l 2
 937.984 1275.9 811.008 1353.73 692.224 1353.73 c 1
 393.216 1353.73 256 1003.52 256 731.136 c 1
 256 456.704 393.216 110.592 690.176 110.592 c 0
 1003.52 110.592 1067.01 430.08 1067.01 616.448 c 1
 681.984 616.448 l 1
 681.984 757.76 l 1
 1230.85 757.76 l 1
 1230.85 671.744 l 1
 1230.85 356.352 1097.73 -28.6719 690.176 -28.6719 c 0
EndSplineSet
Fore
713 -27 m 0
 258 -27 90 397 90 762 c 1
 90 1100 258 1497 715 1497 c 0
 918 1497 1102 1386 1184 1200 c 9
 926 1114 l 17
 905 1188 774 1257 715 1257 c 1
 480 1257 373 989 373 762 c 1
 373 508 480 211 713 211 c 0
 960 211 1010 428 1010 567 c 1
 707 567 l 1
 707 807 l 1
 1288 807 l 1
 1288 661 l 1
 1288 341 1146 -27 713 -27 c 0
EndSplineSet
KernsSLIFO: 107 -68 0 0
EndChar
StartChar: H
Encoding: 40 72 95
Width: 1253
Flags: HW
HStem: 0 21G<115 383 868 1137> 625 239<383 868> 1436 20G<115 383 868 1137>
VStem: 115 268<0 625 864 1456> 868 269<0 625 864 1456>
Back
114.688 1456.13 m 0
 272.384 1456.13 l 1
 272.384 815.104 l 1
 933.888 815.104 l 1
 933.888 1456.13 l 1
 1091.58 1456.13 l 1
 1091.58 0 l 1
 933.888 0 l 1
 933.888 673.792 l 0
 272.384 673.792 l 1
 272.384 0 l 1
 114.688 0 l 1
 114.688 1456.13 l 0
EndSplineSet
Fore
115 1456 m 0
 383 1456 l 1
 383 864 l 1
 868 864 l 1
 868 1456 l 1
 1137 1456 l 1
 1137 0 l 1
 868 0 l 1
 868 625 l 0
 383 625 l 1
 383 0 l 1
 115 0 l 1
 115 1456 l 0
EndSplineSet
EndChar
StartChar: I
Encoding: 41 73 96
Width: 555
Flags: HW
HStem: 0 21G<143 412> 1436 20G<143 412>
VStem: 143 269<0 1456>
Back
143.36 0 m 1
 143.36 1456.13 l 1
 301.056 1456.13 l 1
 301.056 0 l 1
 143.36 0 l 1
EndSplineSet
Fore
143 0 m 1
 143 1456 l 1
 412 1456 l 1
 412 0 l 1
 143 0 l 1
EndSplineSet
EndChar
StartChar: J
Encoding: 42 74 97
Width: 1251
Flags: HW
HStem: -35 254<348.2 866.9> 1436 20G<860 1128>
VStem: 102 241<354.6 586> 860 268<349.4 1456>
Back
102.4 534.528 m 0
 243.712 534.528 l 1
 243.712 337.92 364.544 129.024 555.008 129.024 c 1
 747.521 129.024 860.16 333.824 860.16 534.528 c 2
 860.16 1456.13 l 1
 1017.86 1456.13 l 1
 1017.86 534.528 l 2
 1017.86 208.896 829.44 -20.4805 555.008 -20.4805 c 1
 282.624 -20.4805 102.4 221.184 102.4 534.528 c 0
EndSplineSet
Fore
102 586 m 0
 343 586 l 1
 343 408 410 219 616 219 c 1
 809 219 860 404 860 586 c 2
 860 1456 l 1
 1128 1456 l 1
 1128 586 l 2
 1128 222 956 -35 616 -35 c 1
 258 -35 102 235 102 586 c 0
EndSplineSet
EndChar
StartChar: K
Encoding: 43 75 98
Width: 1333
Flags: HW
HStem: 0 21G<115 383 954 1290> 1436 20G<115 383 926 1241>
VStem: 115 268<0 496 833 1456>
Back
114.688 1456.13 m 0
 272.384 1456.13 l 1
 272.384 747.52 l 1
 980.992 1456.13 l 1
 1167.36 1456.13 l 1
 487.424 753.664 l 1
 1200.13 0 l 1
 1005.57 0 l 1
 376.832 657.408 l 1
 272.384 550.912 l 1
 272.384 0 l 1
 114.688 0 l 1
 114.688 1456.13 l 0
EndSplineSet
Fore
115 1456 m 0
 383 1456 l 1
 383 833 l 1
 926 1456 l 1
 1261 1456 l 1
 705 808 l 1
 1290 0 l 1
 954 0 l 1
 500 628 l 1
 383 496 l 1
 383 0 l 1
 115 0 l 1
 115 1456 l 0
EndSplineSet
KernsSLIFO: 102 -109 0 0
EndChar
StartChar: L
Encoding: 44 76 99
Width: 1220
Flags: HW
HStem: 0 240<383 1149> 1436 20G<115 383>
VStem: 115 268<240 1456>
Back
114.688 1456.13 m 1
 272.384 1456.13 l 1
 272.384 141.312 l 1
 1038.34 141.312 l 1
 1038.34 0 l 1
 114.688 0 l 1
 114.688 1456.13 l 1
EndSplineSet
Fore
115 1456 m 1
 383 1456 l 1
 383 240 l 1
 1149 240 l 1
 1149 0 l 1
 115 0 l 1
 115 1456 l 1
EndSplineSet
EndChar
StartChar: M
Encoding: 45 77 100
Width: 1548
Flags: HW
HStem: 0 21G<66 328 641 911 1229 1491> 1436 20G<66 426 1132 1491>
VStem: 66 262<0 988> 1229 262<0 999>
Back
65.5361 0 m 1
 65.5361 1456.13 l 2
 280.576 1456.13 l 1
 739.328 208.896 l 2
 1200.13 1456.13 l 1
 1406.98 1456.13 l 1
 1406.98 0 l 1
 1253.38 0 l 25
 1253.38 1204.22 l 1
 825.344 16.3838 l 0
 647.168 16.3838 l 1
 219.136 1204.22 l 0
 219.136 0 l 1
 65.5361 0 l 1
EndSplineSet
Fore
66 0 m 1
 66 1456 l 2
 426 1456 l 1
 775 424 l 2
 1132 1456 l 1
 1491 1456 l 1
 1491 0 l 1
 1229 0 l 25
 1229 999 l 1
 911 0 l 0
 641 0 l 1
 328 988 l 0
 328 0 l 1
 66 0 l 1
EndSplineSet
EndChar
StartChar: N
Encoding: 46 78 101
Width: 1343
Flags: HW
HStem: 0 21G<119 387 956 1221> 1436 20G<119 379 952 1221>
VStem: 119 268<0 973> 952 269<516 1456>
Back
118.784 0 m 1
 118.784 1456.13 l 2
 272.384 1456.13 l 1
 1011.71 294.912 l 25
 1011.71 1456.13 l 1
 1169.41 1456.13 l 1
 1169.41 0 l 0
 1024 0 l 1
 276.48 1189.89 l 0
 276.48 0 l 1
 118.784 0 l 1
EndSplineSet
Fore
119 0 m 1
 119 1456 l 2
 379 1456 l 1
 952 516 l 25
 952 1456 l 1
 1221 1456 l 1
 1221 0 l 0
 956 0 l 1
 387 973 l 0
 387 0 l 1
 119 0 l 1
EndSplineSet
EndChar
StartChar: O
Encoding: 47 79 102
Width: 1409
Flags: HW
HStem: -29 242<384.8 1046.5> 1249 240<382.2 1049.1>
VStem: 100 283<432.9 1049.1> 1047 282<432.9 1049.1>
Back
1103.87 724.992 m 0
 1103.87 995.328 1007.62 1353.73 684.032 1353.73 c 0
 362.496 1353.73 266.24 995.328 266.24 724.992 c 1
 266.24 456.704 364.544 110.592 684.032 110.592 c 1
 1005.57 110.592 1103.87 456.704 1103.87 724.992 c 0
100.352 724.992 m 1
 100.352 1046.53 256 1495.04 684.032 1495.04 c 1
 1114.11 1495.04 1269.76 1046.53 1269.76 724.992 c 1
 1269.76 405.504 1112.06 -30.7197 684.032 -30.7197 c 1
 258.048 -30.7197 100.352 405.504 100.352 724.992 c 1
EndSplineSet
Fore
1047 754 m 0
 1047 981 972 1249 715 1249 c 0
 459 1249 383 981 383 754 c 1
 383 507 461 213 715 213 c 1
 970 213 1047 507 1047 754 c 0
100 754 m 1
 100 1074 264 1489 715 1489 c 1
 1167 1489 1329 1074 1329 754 c 1
 1329 413 1165 -29 715 -29 c 1
 266 -29 100 413 100 754 c 1
EndSplineSet
KernsSLIFO: 88 -98 0 0 107 -113 0 0
EndChar
StartChar: P
Encoding: 48 80 103
Width: 1148
Flags: HW
HStem: 0 21G<121 389> 580 243<389 519> 1217 239<389 780.3>
VStem: 121 268<0 580 823 1217> 795 273.681<864 1176>
Back
278.528 774.145 m 1
 423.936 774.145 l 1
 751.616 774.145 870.4 874.496 870.4 1046.53 c 1
 870.4 1216.51 751.616 1314.82 423.936 1314.82 c 1
 278.528 1314.82 l 1
 278.528 774.145 l 1
120.832 1456.13 m 0
 278.528 1456.13 l 1
 423.936 1456.13 l 1
 798.72 1456.13 1032.19 1302.53 1032.19 1046.53 c 0
 1032.19 794.624 798.72 630.784 423.936 630.784 c 1
 278.528 630.784 l 1
 278.528 0 l 1
 120.832 0 l 1
 120.832 1456.13 l 0
EndSplineSet
Fore
389 823 m 1
 519 823 l 1
 720 823 795 900 795 1020 c 1
 795 1140 720 1217 519 1217 c 1
 389 1217 l 1
 389 823 l 1
121 1456 m 0
 389 1456 l 1
 519 1456 l 2
 889.502 1456 1068.68 1260 1068.68 1020 c 0
 1068.68 780 869.147 580 519 580 c 1
 389 580 l 1
 389 0 l 1
 121 0 l 1
 121 1456 l 0
EndSplineSet
KernsSLIFO: 88 -137 0 0
EndChar
StartChar: Q
Encoding: 49 81 104
Width: 1437
Flags: HW
HStem: -35 242<377.6 793.6> 1255 240<391.4 1014.1>
VStem: 98 287<460.2 1072.5> 1047 278<623.342 1099.8>
Back
1046.53 753.664 m 4
 1046.53 980.853 972.04 1282.05 714.752 1282.05 c 4
 459.416 1282.05 382.976 980.853 382.976 753.664 c 5
 382.976 506.839 461.042 188.416 714.752 188.416 c 5
 970.412 188.416 1046.53 506.839 1046.53 753.664 c 4
100.352 753.664 m 5
 100.352 1074.34 264.192 1521.66 714.752 1521.66 c 5
 1167.39 1521.66 1329.15 1074.34 1329.15 753.664 c 5
 1329.15 412.53 1165.23 -53.248 714.752 -53.248 c 5
 266.349 -53.248 100.352 412.53 100.352 753.664 c 5
EndSplineSet
Fore
1047 754 m 1
 1047 1020 946 1255 719 1255 c 1
 467 1255 385 999 385 754 c 1
 385 528 455 207 713 207 c 1
 736 207 811 211 846 244 c 1
 686 362 l 1
 833 559 l 1
 991 428 l 1
 1024 489 1047 657 1047 754 c 1
98 754 m 1
 98 1052 254 1495 719 1495 c 1
 1151 1495 1325 1106 1325 754 c 1
 1325 520 1262 350 1200 260 c 1
 1336 161 l 1
 1186 -29 l 1
 1053 80 l 1
 979 14 856 -35 709 -35 c 1
 291 -35 98 385 98 754 c 1
EndSplineSet
EndChar
StartChar: R
Encoding: 50 82 105
Width: 1210
Flags: HW
HStem: 0 21G<121 389 858 1164> 580 243<389 589.967> 1217 239<389 778.3>
VStem: 121 268<0 580 823 1217> 795 274<864 1176>
Back
389 823 m 5
 519 823 l 5
 720 823 795 900 795 1020 c 5
 795 1140 720 1217 519 1217 c 5
 389 1217 l 5
 389 823 l 5
121 1456 m 4
 389 1456 l 5
 519 1456 l 6
 889.502 1456 1068.68 1260 1068.68 1020 c 4
 1068.68 780 869.147 580 519 580 c 5
 389 580 l 5
 389 0 l 5
 121 0 l 5
 121 1456 l 4
EndSplineSet
Fore
389 823 m 1
 517 823 l 1
 718 823 795 900 795 1020 c 1
 795 1140 718 1217 517 1217 c 1
 389 1217 l 1
 389 823 l 1
858 0 m 1
 545 581 l 1
 532.571 579.714 507.286 579.347 480.242 579.347 c 0
 444.184 579.347 405 580 389 580 c 1
 389 0 l 1
 121 0 l 1
 121 1456 l 0
 389 1456 l 1
 517 1456 l 1
 890 1456 1069 1260 1069 1020 c 0
 1069 864 976 706 792 627 c 1
 1164 0 l 1
 858 0 l 1
EndSplineSet
EndChar
StartChar: S
Encoding: 51 83 106
Width: 1202
Flags: HW
HStem: -29 242<414.6 818.9> 1251 241<477 763>
VStem: 135 274<908 1251.2> 852 274<261 653.6>
Back
88.0645 290.816 m 5
 219.136 370.688 l 5
 309.248 231.424 405.504 110.592 600.064 110.592 c 5
 782.336 110.592 923.648 239.616 923.648 397.312 c 5
 923.648 548.864 776.192 649.216 532.48 712.704 c 4
 354.304 759.808 114.688 847.872 114.688 1095.68 c 5
 114.688 1347.58 342.016 1495.04 575.488 1495.04 c 5
 819.2 1495.04 933.888 1388.54 1028.1 1249.28 c 5
 907.264 1169.41 l 5
 847.872 1271.81 731.136 1353.73 571.392 1353.73 c 5
 417.792 1353.73 276.48 1267.71 276.48 1095.68 c 5
 276.48 913.408 509.952 868.352 643.072 823.296 c 4
 845.824 755.712 1085.44 665.6 1085.44 397.312 c 5
 1085.44 147.456 854.016 -30.7197 600.064 -30.7197 c 5
 380.928 -30.7197 221.184 81.9199 88.0645 290.816 c 5
EndSplineSet
Fore
83 404 m 1
 351 447 l 1
 381 328 462 213 620 213 c 1
 773 213 852 294 852 404 c 0
 852 596 623.64 622.187 406.493 726 c 0
 271.434 790.569 135 875.755 135 1090 c 1
 135 1362 373 1492 620 1492 c 1
 850 1492 1032 1356 1089 1186 c 1
 816 1135 l 1
 786 1206 730 1251 620 1251 c 1
 510 1251 409 1214 409 1090 c 0
 409 950 673.672 893.754 814 828 c 0
 989 746 1126 640 1126 404 c 1
 1126 134 900 -29 620 -29 c 1
 343 -29 122 144 83 404 c 1
EndSplineSet
EndChar
StartChar: T
Encoding: 52 84 107
Width: 1353
Flags: HW
HStem: 0 21G<555 823> 1217 239<78 555 823 1280>
VStem: 555 268<0 1217>
Back
77.8242 1456.13 m 0
 1169.41 1456.13 l 1
 1169.41 1314.82 l 0
 712.704 1314.82 l 1
 712.704 0 l 1
 555.008 0 l 1
 555.008 1314.82 l 1
 77.8242 1314.82 l 1
 77.8242 1456.13 l 0
EndSplineSet
Fore
78 1456 m 0
 1280 1456 l 1
 1280 1217 l 0
 823 1217 l 1
 823 0 l 1
 555 0 l 1
 555 1217 l 1
 78 1217 l 1
 78 1456 l 0
EndSplineSet
KernsSLIFO: 41 -135 0 0 88 -111 0 0
EndChar
StartChar: U
Encoding: 53 85 108
Width: 1347
Flags: HW
HStem: -29 242<465.9 848.1> 1436 20G<111 385 930 1204>
VStem: 111 274<252 1456> 930 274<354 1456>
Back
993.28 1456.13 m 1
 1155.07 1456.13 l 1
 1155.07 661.504 l 1
 1155.07 239.616 960.512 -30.7197 632.832 -30.7197 c 0
 305.152 -30.7197 110.592 239.616 110.592 661.504 c 1
 110.592 1456.13 l 1
 272.384 1456.13 l 1
 272.384 661.504 l 1
 272.384 290.816 438.272 110.592 632.832 110.592 c 1
 827.392 110.592 993.28 290.816 993.28 661.504 c 1
 993.28 1456.13 l 1
EndSplineSet
Fore
930 1456 m 1
 1204 1456 l 1
 1204 694 l 1
 1204 239 1001 -29 657 -29 c 0
 314 -29 111 239 111 694 c 1
 111 1456 l 1
 385 1456 l 1
 385 694 l 1
 385 354 490 213 657 213 c 1
 825 213 930 354 930 694 c 1
 930 1456 l 1
EndSplineSet
EndChar
StartChar: V
Encoding: 54 86 109
Width: 1302
Flags: HW
HStem: 0 21G<497 814> 1436 20G<70 359 953 1231>
Back
1011.71 1456.13 m 1
 1175.55 1456.13 l 1
 735.232 0 l 1
 516.096 0 l 1
 69.6318 1456.13 l 1
 239.616 1456.13 l 1
 624.64 167.936 l 1
 1011.71 1456.13 l 1
EndSplineSet
Fore
953 1456 m 1
 1231 1456 l 1
 814 0 l 1
 497 0 l 1
 70 1456 l 1
 359 1456 l 1
 654 411 l 1
 953 1456 l 1
EndSplineSet
KernsSLIFO: 124 -66 0 0 88 -244 0 0 92 -70 0 0
EndChar
StartChar: W
Encoding: 55 87 110
Width: 1669
Flags: HW
HStem: 0 21G<303 599 1040 1352> 1436 20G<74 355 1353 1589>
Back
73.7275 1456.13 m 1
 227.328 1456.13 l 1
 417.792 223.232 l 0
 702.464 1419.26 l 1
 876.544 1419.26 l 0
 1161.22 223.232 l 1
 1351.68 1456.13 l 25
 1505.28 1456.13 l 1
 1275.9 0 l 1
 1056.77 0 l 1
 790.528 1187.84 l 2
 524.288 0 l 1
 301.056 0 l 2
 73.7275 1456.13 l 1
EndSplineSet
Fore
74 1456 m 1
 355 1456 l 1
 495 538 l 0
 703 1429 l 1
 985 1429 l 0
 1211 532 l 1
 1353 1456 l 25
 1589 1456 l 1
 1352 0 l 1
 1040 0 l 1
 820 935 l 2
 599 0 l 1
 303 0 l 2
 74 1456 l 1
EndSplineSet
KernsSLIFO: 124 -27 0 0 88 -96 0 0
EndChar
StartChar: X
Encoding: 56 88 111
Width: 1298
Flags: HW
HStem: 0 21G<53 390 888 1225> 1436 20G<59 368 909 1219>
Back
63.4883 1456.13 m 0
 245.76 1456.13 l 1
 608.256 849.92 l 1
 962.56 1456.13 l 1
 1144.83 1456.13 l 1
 692.224 729.088 l 1
 1150.98 0 l 1
 960.512 0 l 1
 608.256 585.729 l 1
 247.808 0 l 1
 69.6318 0 l 1
 524.288 729.088 l 1
 63.4883 1456.13 l 0
EndSplineSet
Fore
59 1456 m 0
 368 1456 l 1
 637 955 l 1
 909 1456 l 1
 1219 1456 l 1
 795 727 l 1
 1225 0 l 1
 888 0 l 1
 637 460 l 1
 390 0 l 1
 53 0 l 1
 480 727 l 1
 59 1456 l 0
EndSplineSet
EndChar
StartChar: Y
Encoding: 57 89 112
Width: 1314
Flags: HW
HStem: 0 21G<528 797> 1436 20G<66 351 970 1249>
VStem: 528 269<0 705>
Back
65.5361 1456.13 m 1
 233.472 1456.13 l 1
 589.824 856.064 l 1
 946.176 1456.13 l 1
 1114.11 1456.13 l 1
 667.648 747.52 l 1
 667.648 0 l 1
 509.952 0 l 1
 509.952 747.52 l 1
 65.5361 1456.13 l 1
EndSplineSet
Fore
66 1456 m 1
 351 1456 l 1
 661 919 l 1
 970 1456 l 1
 1249 1456 l 1
 797 705 l 1
 797 0 l 1
 528 0 l 1
 528 705 l 1
 66 1456 l 1
EndSplineSet
KernsSLIFO: 88 -190 0 0 120 -127 0 0
EndChar
StartChar: Z
Encoding: 58 90 113
Width: 1417
Flags: HW
HStem: -0 240<508 1300> 1217 239<139 872>
Back
118.784 1456.13 m 1
 1222.66 1456.13 l 1
 358.4 141.312 l 1
 1234.94 141.312 l 1
 1234.94 0 l 1
 90.1123 0 l 1
 962.56 1314.82 l 1
 118.784 1314.82 l 1
 118.784 1456.13 l 1
EndSplineSet
Fore
139 1456 m 1
 1306 1456 l 1
 508 240 l 1
 1300 240 l 1
 1300 0 l 1
 72 -0 l 1
 872 1217 l 1
 139 1217 l 1
 139 1456 l 1
EndSplineSet
EndChar
StartChar: bracketleft
Encoding: 59 91 114
Width: 743
Flags: HW
HStem: -98 237<375 623> 1292 240<375 623>
VStem: 121 254<139 1292> 121 502<-98 139 1292 1532>
Back
516.096 -96.2559 m 0
 120.832 -96.2559 l 1
 120.832 1529.86 l 0
 516.096 1529.86 l 1
 516.096 1388.54 l 1
 270.336 1388.54 l 1
 270.336 43.0078 l 1
 516.096 43.0078 l 1
 516.096 -96.2559 l 0
EndSplineSet
Fore
623 -98 m 0xd0
 121 -98 l 1
 121 1532 l 0
 623 1532 l 1
 623 1292 l 1xd0
 375 1292 l 1
 375 139 l 1xe0
 623 139 l 1
 623 -98 l 0xd0
EndSplineSet
EndChar
StartChar: backslash
Encoding: 60 92 115
Width: 856
Flags: HW
HStem: 0 21G<585 895>
VStem: -39 934<0 1543>
Back
679.936 0 m 1
 -38.9121 1544.19 l 1
 133.12 1544.19 l 0
 849.92 0 l 1
 679.936 0 l 1
EndSplineSet
Fore
585 0 m 1
 -39 1543 l 1
 253 1543 l 0
 895 0 l 1
 585 0 l 1
EndSplineSet
KernsSLIFO: 115 -143 0 0
EndChar
StartChar: bracketright
Encoding: 61 93 116
Width: 743
Flags: HW
HStem: -98 239<119 365> 1292 240<119 365>
VStem: 119 500<-98 141 1292 1532> 365 254<141 1292>
Back
118.784 -96.2559 m 0
 118.784 45.0557 l 1
 364.544 45.0557 l 1
 364.544 1388.54 l 1
 118.784 1388.54 l 1
 118.784 1529.86 l 1
 514.048 1529.86 l 0
 514.048 -96.2559 l 1
 118.784 -96.2559 l 0
EndSplineSet
Fore
119 -98 m 0xe0
 119 141 l 1xe0
 365 141 l 1
 365 1292 l 1xd0
 119 1292 l 1
 119 1532 l 1
 619 1532 l 0
 619 -98 l 1
 119 -98 l 0xe0
EndSplineSet
EndChar
StartChar: asciicircum
Encoding: 62 94 117
Width: 1081
Flags: HW
HStem: 1148 344<406 926>
VStem: 122 804<1148 1151>
Back
811.008 1148.93 m 1
 622.592 1148.93 l 1
 466.944 1361.92 l 1
 309.248 1150.98 l 0
 122.88 1150.98 l 1
 399.36 1492.99 l 1
 530.432 1492.99 l 1
 811.008 1148.93 l 1
EndSplineSet
Fore
926 1148 m 1
 655 1148 l 1
 523 1309 l 1
 399 1151 l 0
 122 1151 l 1
 406 1492 l 1
 642 1492 l 1
 926 1148 l 1
EndSplineSet
EndChar
StartChar: underscore
Encoding: 63 95 118
Width: 1241
Flags: HW
HStem: -281 240<78 1167>
Back
77.8242 -231.424 m 1
 77.8242 -90.1123 l 1
 1167.36 -90.1123 l 1
 1167.36 -231.424 l 1
 77.8242 -231.424 l 1
EndSplineSet
Fore
78 -281 m 1
 78 -41 l 1
 1167 -41 l 1
 1167 -281 l 1
 78 -281 l 1
EndSplineSet
EndChar
StartChar: grave
Encoding: 64 96 119
Width: 536
Flags: HW
HStem: 1132 434<261 327>
VStem: 85 386<1254 1418>
Back
432.128 1300.48 m 1
 270.336 1300.48 l 2
 96.2559 1554.43 l 2
 253.952 1554.43 l 1
 432.128 1300.48 l 1
EndSplineSet
Fore
327 1132 m 2
 85 1418 l 1
 77.7684 1427.48 74.7031 1439.19 74.7031 1451.79 c 0
 74.7031 1489.73 102.478 1535.74 128 1553 c 0
 150.047 1569.38 186.379 1584.57 216.999 1584.57 c 0
 234.989 1584.57 251.008 1579.32 261 1566 c 1
 471 1254 l 2
 473.56 1250.16 474.686 1245.4 474.686 1240.05 c 0
 474.686 1211.95 443.64 1167.6 426 1155 c 0
 409.809 1142.49 374.121 1123.48 348.829 1123.48 c 0
 339.754 1123.48 332.017 1125.93 327 1132 c 2
EndSplineSet
EndChar
StartChar: a
Encoding: 65 97 120
Width: 1080
Flags: HW
HStem: -29 220<376.4 636> 524 217<376.4 632> 897 205<342 602>
VStem: 90 242<244.2 467.8> 719.397 258.603<600.92 862> 727 251<0 14.2541 244.2 467.8>
Back
720 -477 m 4
 720 -695 849 -785 1086 -785 c 5
 1085 -547 l 5
 994 -547 978 -529 978 -473 c 4
 978 738 l 5
 720 738 l 5
 720 581 l 21
 651 690 529 764 413 764 c 4
 149 764 34 500 34 196 c 4
 34 -108 151 -365 413 -364 c 5
 529 -364 651 -288 720 -179 c 5
 720 -477 l 4
294 201 m 4
 294 446 409 530 506 530 c 5
 603 530 729 454 728 201 c 5
 728 -54 603 -130 506 -130 c 4
 412 -130 294 -23 294 201 c 4
EndSplineSet
Fore
535 524 m 5xf4
 413 524 332 442 332 356 c 5
 332 270 413 191 535 191 c 5
 657 191 727 270 727 356 c 5
 727 442 657 524 535 524 c 5xf4
450 741 m 5
 590 741 694.397 654 719.397 576 c 5
 719.397 658 l 4
 719.397 862 572 897 472 897 c 5
 372 897 310 868 256 844 c 13
 153 1008 l 21
 212 1056 365 1102 472 1102 c 5
 734 1102 978 976 978 609 c 14xf8
 978 305 l 6
 978 0 l 5
 721 0 l 5
 721 136 l 5
 696 58 594 -29 454 -29 c 5
 252 -29 90 136 90 358 c 5
 90 580 252 741 450 741 c 5
EndSplineSet
KernsSLIFO: 42 -38 0 0
EndChar
StartChar: b
Encoding: 66 98 121
Width: 1122
Flags: HW
HStem: -28 234<533.2 713.2> 866 234<533.2 717.1> 1434 20G<119 377>
VStem: 119 258<0 157 917 1454> 803 260<245.8 855.5>
Back
377 0 m 9
 119 0 l 1
 119 1454 l 1
 377 1454 l 1
 377 912 l 17
 434 1016 557 1102 694 1102 c 0
 886 1102 1013.97 916.986 1014 538 c 2
 1014 0 l 1
 756 0 l 0
 756 537 l 2
 756 812 656 866.89 576 866.89 c 0
 496 866.89 377 810 377 536 c 2
 377 0 l 9
270.336 0 m 17
 118.784 0 l 1
 118.784 1454.08 l 1
 270.336 1454.08 l 1
 270.336 899.072 l 17
 331.776 995.328 405.504 1091.58 550.912 1091.58 c 0
 802.816 1091.58 923.648 823.296 923.648 540.672 c 0
 923.648 258.048 835.584 -28.6719 512 -28.6719 c 1
 348.16 -28.6719 270.336 139.264 270.336 139.264 c 0
 270.336 0 l 17
770.048 536.576 m 0
 770.048 770.048 688.128 956.416 561.152 956.416 c 1
 421.888 956.416 266.24 794.624 266.24 536.576 c 1
 266.24 245.76 409.6 106.496 522.24 106.496 c 0
 671.744 106.496 770.048 262.144 770.048 536.576 c 0
EndSplineSet
Fore
377 0 m 17
 119 0 l 1
 119 1454 l 1
 377 1454 l 1
 377 917 l 17
 446 1026 568 1100 684 1100 c 0
 948 1100 1063 836 1063 532 c 0
 1063 228 946 -28 684 -28 c 1
 568 -28 446 48 377 157 c 1
 377 0 l 17
803 537 m 0
 803 782 688 866 591 866 c 1
 494 866 369 790 369 537 c 1
 369 282 494 206 591 206 c 0
 685 206 803 313 803 537 c 0
EndSplineSet
EndChar
StartChar: c
Encoding: 67 99 122
Width: 1047
Flags: HW
HStem: -29 232<420.1 745.1> 870 230<417 705.712>
VStem: 86 262<274.6 790.7>
Back
1362 0 m 21
 348 537 l 5
 1362 1074 l 13
1024 737 m 9
 776 737 l 17
 741 807 687 870 586 870 c 1
 456 870 348 731 348 532 c 4
 348 334 463 203 606 203 c 1
 713 203 733 262 762 315 c 9
 1024 315 l 1
 991 184 836 -29 606 -29 c 1
 285 -29 86 194 86 532 c 0
 86 871 297 1100 586 1100 c 0
 762 1100 983 975 1024 737 c 9
835.584 960.512 m 9
 735.232 860.16 l 2
 677.888 917.504 618.496 958.464 499.712 958.464 c 1
 368.64 958.464 239.616 778.24 239.616 536.576 c 0
 239.616 294.912 389.12 104.448 520.192 104.448 c 0
 647.168 104.448 694.272 157.696 741.376 217.088 c 9
 839.68 118.784 l 1
 786.432 61.4404 716.8 -28.6719 520.192 -30.7197 c 1
 262.144 -30.7197 86.0156 208.896 86.0156 536.576 c 0
 86.0156 864.256 270.336 1093.63 499.712 1093.63 c 0
 659.456 1093.63 741.376 1052.67 835.584 960.512 c 9
EndSplineSet
Fore
765.892 756 m 1
 731.2 817.162 678.086 870 586 870 c 0
 456 870 348 731 348 532 c 0
 348 334 463 203 606 203 c 1
 713 203 733 262 762 315 c 9
 976 204.122 l 0
 907.407 89.5248 777.571 -29 606 -29 c 1
 285 -29 86 194 86 532 c 0
 86 871 297 1100 586 1100 c 0
 738.935 1100 901.082 1009.59 978.59 868 c 1
 765.892 756 l 1
EndSplineSet
EndChar
StartChar: d
Encoding: 68 100 123
Width: 1122
Flags: HW
HStem: -28 234<423.8 603.8> 866 234<419.9 603.8> 1434 20G<760 1018>
VStem: 74 260<245.8 855.5> 760 258<0 157 917 1454>
Back
741.376 0 m 9
 741.376 139.264 l 0
 741.376 139.264 663.552 -28.6719 499.712 -28.6719 c 1
 176.128 -28.6719 88.0645 258.048 88.0645 540.672 c 0
 88.0645 823.296 208.896 1091.58 460.8 1091.58 c 0
 606.208 1091.58 684.032 987.136 741.376 899.072 c 9
 741.376 1454.08 l 1
 892.928 1454.08 l 1
 892.928 0 l 1
 741.376 0 l 9
241.664 536.576 m 0
 241.664 262.144 339.968 106.496 489.472 106.496 c 0
 602.112 106.496 745.472 245.76 745.472 536.576 c 1
 745.472 794.624 589.824 956.416 450.56 956.416 c 1
 323.584 956.416 241.664 770.048 241.664 536.576 c 0
EndSplineSet
Fore
760 0 m 9
 760 157 l 1
 691 48 569 -28 453 -28 c 1
 191 -28 74 228 74 532 c 0
 74 836 189 1100 453 1100 c 0
 569 1100 691 1026 760 917 c 9
 760 1454 l 1
 1018 1454 l 1
 1018 0 l 1
 760 0 l 9
334 537 m 0
 334 313 452 206 546 206 c 0
 643 206 768 282 768 537 c 1
 768 790 643 866 546 866 c 1
 449 866 334 782 334 537 c 0
EndSplineSet
EndChar
StartChar: e
Encoding: 69 101 124
Width: 1093
Flags: HW
HStem: -29 230<479.428 655.276> 469 182<363 776> 868 230<405.2 734.1>
VStem: 88 274<171.606 537>
Back
247.104 604.16 m 1
 768.704 604.16 l 1
 757.76 778.24 667.712 958.464 507.904 958.464 c 0
 348.097 958.464 258.048 774.145 247.104 604.16 c 1
247.073 468.992 m 1
 262.144 286.72 348.033 106.496 507.904 106.496 c 0
 602.145 106.496 668.416 162.464 711.521 242.655 c 0
 844.48 187.616 l 0
 776.159 55.4238 662.368 -28.6719 507.904 -28.6719 c 1
 241.664 -28.6719 88.0645 221.184 88.0645 536.576 c 0
 88.0645 851.968 241.664 1093.63 507.904 1093.63 c 0
 774.144 1093.63 923.648 851.968 923.648 536.576 c 0
 923.648 514.539 924.608 491.84 924.608 468.992 c 1
 247.073 468.992 l 1
EndSplineSet
Fore
363 651 m 5
 776 651 l 5
 767 763 696 868 569 868 c 4
 443 868 371 760 363 651 c 5
578 201 m 4
 637.443 201 694.306 221.003 732 267.231 c 4
 960 169.169 l 4
 874.375 38.3511 711.221 -29 578 -29 c 5
 311 -29 88 210 88 537 c 4
 88 860 303 1098 569 1098 c 4
 836 1098 1026 860 1026 537 c 4
 1026 469 l 5
 362 469 l 5
 367.084 240.236 502.176 201 578 201 c 4
EndSplineSet
KernsSLIFO: 40 -53 0 0
EndChar
StartChar: f
Encoding: 70 102 125
Width: 782
Flags: HW
HStem: 0 21G<213 471> 844 229<74 213 471 636> 1260 229<478.9 596.3>
VStem: 213 258<0 844 1073 1233>
Back
405.504 937.984 m 0
 405.504 0 l 1
 253.952 0 l 1
 253.952 937.984 l 0
 114.688 937.984 l 1
 114.688 1073.15 l 1
 253.952 1073.15 l 0
 253.952 1183.74 l 1
 253.952 1380.35 368.64 1480.7 538.624 1480.7 c 0
 622.592 1480.7 653.312 1454.08 712.704 1419.26 c 9
 616.448 1323.01 l 17
 581.632 1339.39 577.536 1345.54 548.864 1345.54 c 0
 450.56 1345.54 405.504 1288.19 405.504 1183.74 c 1
 405.504 1073.15 l 0
 602.112 1073.15 l 1
 602.112 937.984 l 1
 405.504 937.984 l 0
EndSplineSet
Fore
471 844 m 0
 471 0 l 1
 213 0 l 1
 213 844 l 0
 74 844 l 1
 74 1073 l 1
 213 1073 l 0
 213 1153 l 1
 213 1286 365 1489 563 1489 c 0
 647 1489 731 1458 790 1400 c 9
 641 1221 l 17
 617 1249 573 1260 553 1260 c 0
 496 1260 471 1233 471 1173 c 1
 471 1073 l 0
 636 1073 l 1
 636 844 l 1
 471 844 l 0
EndSplineSet
KernsSLIFO: 120 -80 0 0 34 -68 0 0 45 -41 0 0 40 -70 0 0 41 -82 0 0 35 -41 0 0
EndChar
StartChar: g
Encoding: 71 103 126
Width: 1137
Flags: HW
HStem: -461 224<380.7 710.9> -28 234<423.8 603.8> 866 234<419.9 603.8>
VStem: 74 260<245.8 855.5> 104 243<-229.777 -99> 760 258<-207.8 157 917 1073>
Back
241.664 538.624 m 0
 241.664 264.192 339.968 108.544 489.472 108.544 c 0
 602.112 108.544 745.472 247.808 745.472 538.624 c 1
 745.472 796.672 589.824 958.464 450.56 958.464 c 1
 323.584 958.464 241.664 772.096 241.664 538.624 c 0
741.376 141.312 m 1
 731.136 119.808 665.6 -26.624 499.712 -26.624 c 1
 176.128 -26.624 88.0645 260.096 88.0645 542.72 c 0
 88.0645 825.344 208.896 1093.63 460.8 1093.63 c 0
 606.208 1093.63 679.936 1003.52 741.376 901.12 c 9
 741.376 1073.15 l 1
 892.928 1073.15 l 1
 892.928 -18.4316 l 2
 892.928 -290.816 710.656 -448.512 507.904 -448.512 c 1
 243.712 -448.512 129.024 -243.712 112.64 -108.544 c 0
 112.64 -108.544 200.09 -108.544 256 -108.544 c 17
 274.432 -227.328 380.928 -313.344 499.712 -313.344 c 0
 624.64 -313.344 741.376 -225.28 741.376 -32.7676 c 0
 741.376 141.312 l 1
EndSplineSet
Fore
760 -70 m 0xec
 760 157 l 1
 691 48 569 -28 453 -28 c 1
 191 -28 74 228 74 532 c 0xf4
 74 836 189 1100 453 1100 c 0
 569 1100 691 1026 760 917 c 9
 760 1073 l 1
 1018 1073 l 1
 1018 -50.3809 l 0
 1018 -262 862 -461 552 -461 c 1
 242 -461 120 -245 104 -99 c 0
 104 -99 252.23 -92.29 347 -88 c 17
 358 -172 420 -237 551 -237 c 0
 674 -237 760 -176 760 -70 c 0xec
334 537 m 0
 334 313 452 206 546 206 c 0
 643 206 768 282 768 537 c 1
 768 790 643 866 546 866 c 1
 449 866 334 782 334 537 c 0
EndSplineSet
EndChar
StartChar: h
Encoding: 72 104 127
Width: 1121
Flags: HW
HStem: 0 21G<119 377 756 1014> 866.89 235.11<515.9 694> 1434 20G<119 377>
VStem: 119 258<0 810 912 1454> 756 258<0 894.5>
Back
270.336 0 m 9
 118.784 0 l 1
 118.784 1454.08 l 1
 270.336 1454.08 l 1
 270.336 921.6 l 17
 339.968 995.328 417.792 1095.68 563.2 1095.68 c 0
 819.2 1095.68 905.216 880.64 905.216 622.592 c 0
 905.216 0 l 1
 753.664 0 l 0
 753.664 618.496 l 0
 753.664 790.528 684.032 958.464 573.44 958.464 c 1
 446.464 958.464 270.336 831.488 270.336 659.456 c 0
 270.336 0 l 9
EndSplineSet
Fore
377 0 m 9
 119 0 l 1
 119 1454 l 1
 377 1454 l 1
 377 912 l 17
 434 1016 558 1102 700 1102 c 0
 843 1102 1014 953 1014 668 c 5
 1014 0 l 1
 756 0 l 0
 756 537 l 2
 756 812 684 866.89 576 866.89 c 0
 468 866.89 377 810 377 536 c 2
 377 0 l 9
EndSplineSet
EndChar
StartChar: i
Encoding: 73 105 128
Width: 534
Flags: HMW
Back
120.832 1333.25 m 0
 120.832 1384.45 163.84 1427.46 215.04 1427.46 c 0
 266.24 1427.46 309.248 1384.45 309.248 1333.25 c 0
 309.248 1282.05 266.24 1239.04 215.04 1239.04 c 0
 163.84 1239.04 120.832 1282.05 120.832 1333.25 c 0
139.264 1073.15 m 1
 290.816 1073.15 l 1
 290.816 0 l 1
 139.264 0 l 1
 139.264 1073.15 l 1
EndSplineSet
Fore
121 1334 m 0
 121 1421 188 1494 268 1494 c 0
 348 1494 415 1421 415 1334 c 0
 415 1247 348 1174 268 1174 c 0
 188 1174 121 1247 121 1334 c 0
139 1073 m 1
 397 1073 l 1
 397 0 l 1
 139 0 l 1
 139 1073 l 1
EndSplineSet
EndChar
StartChar: j
Encoding: 74 106 129
Width: 534
Flags: HW
HStem: -432 229<-24.3395 110.1> 1053 20G<139 397>
VStem: 121 294<1220.9 1447.1> 139 258<-175.2 1073>
Back
120.832 1333.25 m 0
 120.832 1384.45 163.84 1427.46 215.04 1427.46 c 0
 266.24 1427.46 309.248 1384.45 309.248 1333.25 c 0
 309.248 1282.05 266.24 1239.04 215.04 1239.04 c 0
 163.84 1239.04 120.832 1282.05 120.832 1333.25 c 0
-247.808 -352.256 m 9
 -139.264 -260.096 l 1
 -114.688 -282.624 -77.8242 -294.912 -28.6719 -294.912 c 1
 102.4 -294.912 139.264 -208.896 139.264 0 c 1
 139.264 1073.15 l 1
 290.816 1073.15 l 0
 290.816 0 l 1
 290.816 -303.104 176.128 -430.08 -28.6719 -430.08 c 1
 -131.072 -430.08 -198.656 -399.36 -247.808 -352.256 c 9
EndSplineSet
Fore
121 1334 m 0xe0
 121 1421 188 1494 268 1494 c 0
 348 1494 415 1421 415 1334 c 0
 415 1247 348 1174 268 1174 c 0
 188 1174 121 1247 121 1334 c 0xe0
-236 -333 m 9
 -67 -161 l 1
 -51 -184 -12 -203 23 -203 c 1
 90 -203 139 -156 139 -92 c 1
 139 1073 l 1
 397 1073 l 0
 397 -35 l 1xd0
 397 -240 205 -432 12 -432 c 1
 -90 -432 -162 -416 -236 -333 c 9
EndSplineSet
EndChar
StartChar: k
Encoding: 75 107 130
Width: 999
Flags: HW
HStem: 0 21G<119 377 702 996> 1053 20G<658 973> 1434 20G<119 377>
VStem: 119 258<0 444 716 1454>
Back
417.792 630.784 m 1
 929.792 0 l 1
 755.712 0 l 1
 315.392 532.48 l 1
 270.336 479.232 l 1
 270.336 0 l 1
 118.784 0 l 1
 118.784 1454.08 l 1
 270.336 1454.08 l 1
 270.336 669.696 l 17
 671.744 1073.15 l 1
 845.824 1073.15 l 1
 417.792 630.784 l 1
EndSplineSet
Fore
578 597 m 1
 996 0 l 1
 702 0 l 1
 391 467 l 1
 377 444 l 1
 377 0 l 1
 119 0 l 1
 119 1454 l 1
 377 1454 l 1
 377 716 l 17
 658 1073 l 1
 973 1073 l 1
 578 597 l 1
EndSplineSet
EndChar
StartChar: l
Encoding: 76 108 131
Width: 561
Flags: HW
HStem: 1434 20G<139 397>
VStem: 139 258<219.9 1454>
Back
290.816 215.04 m 1
 290.816 135.168 299.008 102.4 327.68 102.4 c 1
 327.68 -28.6719 l 1
 176.128 -28.6719 139.264 12.2881 139.264 210.944 c 1
 139.264 1454.08 l 1
 290.816 1454.08 l 1
 290.816 215.04 l 1
EndSplineSet
Fore
397 281 m 1
 397 234 418 194 490 194 c 1
 490 -29 l 1
 253 -29 139 40 139 276 c 1
 139 1454 l 1
 397 1454 l 1
 397 281 l 1
EndSplineSet
EndChar
StartChar: braceleft
Encoding: 91 123 132
Width: 747
Flags: HW
HStem: -102 213<502 645> 1348 213<502 645>
VStem: 80 565<729 1561>
Back
79.8721 729.088 m 1
 350.208 815.104 241.664 1275.9 294.912 1400.83 c 1
 356.352 1525.76 487.424 1525.76 624.64 1529.86 c 1
 624.64 1394.69 l 1
 610.304 1396.74 595.968 1398.78 581.632 1398.78 c 0
 528.384 1398.78 456.704 1378.3 430.08 1339.39 c 1
 419.84 1320.96 417.792 1282.05 417.792 1236.99 c 2
 417.792 1191.94 l 2
 417.792 1071.1 393.216 770.048 292.863 729.088 c 1
 393.216 692.224 417.792 364.544 417.792 237.568 c 0
 417.792 194.56 l 0
 417.792 145.408 419.84 106.496 430.08 88.0645 c 1
 456.704 49.1523 528.384 28.6719 581.632 28.6719 c 0
 595.968 28.6719 610.304 30.7197 624.64 32.7676 c 1
 624.64 -102.4 l 1
 487.424 -98.3037 356.352 -98.3037 294.912 26.624 c 1
 241.664 151.552 350.208 647.168 79.8721 729.088 c 1
EndSplineSet
Fore
80 729 m 1
 328 811 238 1327 299 1444 c 0
 360 1559 488 1557 645 1561 c 1
 645 1348 l 1
 535 1348 487 1317 487 1196 c 0
 487 1042 475 782 354 729 c 1
 475 678 487 416 487 262 c 0
 487 141 535 111 645 111 c 1
 645 -102 l 1
 488 -99 360 -101 299 14 c 0
 238 131 328 649 80 729 c 1
EndSplineSet
EndChar
StartChar: bar
Encoding: 92 124 133
Width: 468
Flags: HW
HStem: 0 21G<115 358> 1434 20G<115 358>
VStem: 115 243<0 1454>
Back
114.688 0 m 17
 114.688 1454.08 l 1
 258.048 1454.08 l 1
 258.048 0 l 9
 114.688 0 l 17
EndSplineSet
Fore
115 0 m 17
 115 1454 l 1
 358 1454 l 1
 358 0 l 9
 115 0 l 17
EndSplineSet
EndChar
StartChar: braceright
Encoding: 93 125 134
Width: 747
Flags: HW
HStem: -102 213<121 264> 1348 213<121 264>
VStem: 121 565<-102 729>
Back
667.648 729.088 m 1
 397.312 647.168 505.856 157.696 452.608 32.7676 c 1
 391.168 -92.1602 260.096 -92.1602 122.88 -96.2559 c 1
 122.88 38.9121 l 1
 137.216 36.8643 151.552 34.8164 165.888 34.8164 c 0
 219.136 34.8164 290.816 55.2959 317.44 94.208 c 1
 327.68 112.64 329.728 151.552 329.728 200.704 c 0
 329.728 243.712 l 0
 329.728 370.688 354.304 692.224 454.656 729.088 c 1
 354.304 770.048 329.728 1071.1 329.728 1191.94 c 2
 329.728 1236.99 l 2
 329.728 1282.05 327.68 1320.96 317.44 1339.39 c 1
 290.816 1378.3 219.136 1398.78 165.888 1398.78 c 0
 151.552 1398.78 137.216 1396.74 122.88 1394.69 c 1
 122.88 1529.86 l 1
 260.096 1525.76 391.168 1525.76 452.608 1400.83 c 1
 505.856 1275.9 397.312 815.104 667.648 729.088 c 1
EndSplineSet
Fore
686 729 m 1
 438 649 528 131 467 14 c 0
 406 -101 278 -99 121 -102 c 1
 121 111 l 1
 231 111 279 141 279 262 c 0
 279 416 291 678 412 729 c 1
 291 782 279 1042 279 1196 c 0
 279 1317 231 1348 121 1348 c 1
 121 1561 l 1
 278 1557 406 1559 467 1444 c 0
 528 1327 438 811 686 729 c 1
EndSplineSet
EndChar
StartChar: asciitilde
Encoding: 94 126 135
Width: 759
Flags: HW
HStem: 512 247<376.8 603> 664 247<134.6 339.6>
VStem: 53 637<606 808 808 866>
Back
53.248 763.904 m 17
 98.3037 800.768 157.696 860.16 235.52 860.16 c 0
 333.824 860.16 397.312 708.608 501.76 708.608 c 1
 571.392 708.608 628.736 761.856 690.176 806.912 c 9
 690.176 661.504 l 17
 628.736 614.4 575.488 563.2 501.76 563.2 c 0
 387.072 563.2 315.392 714.752 233.472 714.752 c 0
 155.648 714.752 108.544 663.552 53.248 618.496 c 9
 53.248 763.904 l 17
EndSplineSet
Fore
53 808 m 17x60
 98 845 158 911 236 911 c 0x60
 334 911 408 759 512 759 c 1
 582 759 647 825 690 866 c 9
 690 606 l 17
 653 578 595 512 512 512 c 0xa0
 397 512 315 664 233 664 c 0
 156 664 115 612 53 567 c 9
 53 808 l 17x60
EndSplineSet
EndChar
StartChar: cent
Encoding: 97 162 138
Width: 884
Flags: HW
VStem: 70 243<530.2 716.1> 307 230<78 285 977 1208>
Back
370.688 278.528 m 1
 204.8 299.008 69.6318 434.176 69.6318 657.408 c 0
 69.6318 872.448 241.664 962.561 366.592 993.28 c 1
 366.592 1208.32 l 1
 501.76 1208.32 l 1
 501.76 993.28 l 1
 581.632 972.8 647.168 927.744 700.416 880.64 c 9
 610.304 786.432 l 2
 581.632 815.104 528.384 866.304 423.936 866.304 c 1
 313.344 866.304 212.992 778.24 212.992 653.312 c 0
 212.992 499.712 303.104 405.504 430.08 405.504 c 0
 512 405.504 581.632 438.272 638.976 512 c 9
 729.088 421.888 l 1
 688.128 356.352 604.16 305.152 505.856 274.432 c 1
 505.856 77.8242 l 1
 370.688 77.8242 l 1
 370.688 278.528 l 1
EndSplineSet
Fore
313 293 m 1x80
 180 315 70 439 70 631 c 0x80
 70 827 207 948 307 976 c 1
 307 1208 l 1
 537 1208 l 1
 537 977 l 1x40
 591 966 681 907 732 837 c 9
 573 709 l 2
 572.7 708.7 572.34 708.557 571.916 708.557 c 0
 563.853 708.557 532.55 760 448 760 c 1
 372 760 313 696 313 629 c 0
 313 553 360 479 446 479 c 0
 531 479 543 513 574 544 c 9
 735 408 l 1
 680 340 609 291 543 285 c 1
 543 78 l 1
 313 78 l 1
 313 293 l 1x80
EndSplineSet
EndChar
StartChar: sterling
Encoding: 98 163 139
Width: 1267
Flags: HW
HStem: 0 231<498 1004> 549 229<74 294 575 930> 1247 228<576.3 797.3>
VStem: 311 262<778 1105.4>
Back
301.056 595.968 m 1
 73.7275 595.968 l 1
 73.7275 731.136 l 1
 311.296 731.136 l 1
 311.296 1200.13 389.12 1466.37 585.729 1466.37 c 0
 729.088 1466.37 839.68 1376.26 913.408 1169.41 c 1
 770.048 1163.26 l 1
 749.568 1245.18 692.224 1333.25 585.729 1333.25 c 0
 520.192 1333.25 464.896 1093.63 464.896 933.888 c 2
 464.896 808.96 l 1
 464.896 731.136 l 1
 823.296 731.136 l 1
 823.296 595.968 l 1
 458.752 595.968 l 1
 447.914 444.25 391.381 252.543 352.256 135.168 c 1
 856.064 135.168 l 1
 888.832 137.216 923.648 139.264 972.8 206.848 c 1
 1052.67 92.1602 l 1
 1005.57 20.4805 923.648 12.2881 843.776 0 c 1
 135.168 0 l 1
 168.001 131.332 287.58 380.356 301.056 595.968 c 1
EndSplineSet
Fore
294 549 m 1
 74 549 l 1
 74 778 l 1
 311 778 l 1
 311 1222 405 1475 692 1475 c 0
 858 1475 967 1372 1041 1138 c 1
 811 1116 l 1
 796 1179 773 1247 692 1247 c 0
 603 1247 573 1070 573 952 c 2
 573 846 l 1
 573 778 l 1
 930 778 l 1
 930 549 l 1
 575 549 l 1
 557 444 545 321 498 231 c 1
 961 231 l 1
 1004 231 1040 279 1054 308 c 1
 1200 156 l 1
 1146 35 1049 0 958 0 c 1
 135 0 l 1
 167 121 281 350 294 549 c 1
EndSplineSet
EndChar
StartChar: currency
Encoding: 99 164 140
Width: 987
Flags: HW
HStem: 305 334<53 164 819 934> 1083 20G<485.5 502>
VStem: 53 334<305 422 1084 1192> 600 334<305 424 1084 1192>
Back
143.36 753.664 m 4
 143.36 945.849 299.336 1101.82 491.521 1101.82 c 4
 683.704 1101.82 839.68 945.849 839.68 753.664 c 4
 839.68 561.479 683.704 405.504 491.521 405.504 c 4
 299.336 405.504 143.36 561.479 143.36 753.664 c 4
393.216 753.664 m 0
 393.216 807.928 437.256 851.968 491.521 851.968 c 0
 545.784 851.968 589.824 807.928 589.824 753.664 c 0
 589.824 699.4 545.784 655.36 491.521 655.36 c 0
 437.256 655.36 393.216 699.4 393.216 753.664 c 0
EndSplineSet
Fore
393 752 m 0
 393 692 443 655 494 655 c 0
 545 655 590 701 590 752 c 0
 590 812 543 852 494 852 c 0
 439 852 393 812 393 752 c 0
600 424 m 1
 569 410 510 406 494 406 c 0
 477 406 419 409 387 422 c 1
 387 305 l 1
 53 305 l 1
 53 639 l 1
 164 639 l 1
 152 668 143 708 143 750 c 0
 143 791 150 831 160 858 c 1
 53 858 l 1
 53 1192 l 1
 387 1192 l 1
 387 1084 l 1
 418 1098 477 1103 494 1103 c 0
 510 1103 577 1096 600 1084 c 1
 600 1192 l 1
 934 1192 l 1
 934 858 l 1
 823 858 l 1
 834 815 840 791 840 750 c 0
 840 708 831 678 819 639 c 1
 934 639 l 1
 934 305 l 1
 600 305 l 1
 600 424 l 1
EndSplineSet
EndChar
StartChar: yen
Encoding: 100 165 141
Width: 1136
Flags: HW
HStem: 0 21G<420 678> 285 229<143 420 678 938> 635 229<143 313 783 938>
VStem: 420 258<0 285 514 635>
Back
460.8 681.984 m 1
 149.504 681.984 l 1
 149.504 817.152 l 1
 407.552 817.152 l 1
 63.4883 1396.74 l 1
 219.136 1396.74 l 1
 542.72 831.488 l 1
 886.784 1396.74 l 1
 1042.43 1396.74 l 1
 669.696 817.152 l 1
 917.504 817.152 l 1
 917.504 681.984 l 1
 612.352 681.984 l 1
 612.352 466.944 l 1
 917.504 466.944 l 1
 917.504 331.776 l 1
 612.352 331.776 l 1
 612.352 0 l 1
 460.8 0 l 1
 460.8 331.776 l 1
 149.504 331.776 l 1
 149.504 466.944 l 1
 460.8 466.944 l 1
 460.8 681.984 l 1
EndSplineSet
Fore
420 635 m 1
 143 635 l 1
 143 864 l 1
 313 864 l 1
 45 1397 l 1
 328 1397 l 1
 559 888 l 1
 807 1397 l 1
 1069 1397 l 1
 783 864 l 1
 938 864 l 1
 938 635 l 1
 678 635 l 1
 678 514 l 1
 938 514 l 1
 938 285 l 1
 678 285 l 1
 678 0 l 1
 420 0 l 1
 420 285 l 1
 143 285 l 1
 143 514 l 1
 420 514 l 1
 420 635 l 1
EndSplineSet
EndChar
StartChar: brokenbar
Encoding: 101 166 142
Width: 405
Flags: HW
HStem: 0 21G<80 324>
VStem: 80 244<0 666 768 1434>
Back
223.232 665.6 m 17
 223.232 0 l 1
 79.8721 0 l 1
 79.8721 665.6 l 9
 223.232 665.6 l 17
79.8721 768 m 17
 79.8721 1433.6 l 1
 223.232 1433.6 l 1
 223.232 768 l 9
 79.8721 768 l 17
EndSplineSet
Fore
324 666 m 17
 324 0 l 1
 80 0 l 1
 80 666 l 9
 324 666 l 17
80 768 m 17
 80 1434 l 1
 324 1434 l 1
 324 768 l 9
 80 768 l 17
EndSplineSet
EndChar
StartChar: section
Encoding: 102 167 143
Width: 694
Flags: HW
HStem: 821.4 192.6<276.718 384.776>
VStem: 33 236<665.736 854> 413 253<552 730.968>
Back
176.128 958.464 m 1
 194.809 963.801 216.384 966.654 241.664 966.656 c 0
 447.896 966.656 657.408 782.336 657.408 530.432 c 0
 657.408 307.2 516.096 104.448 339.968 104.448 c 0
 221.184 104.448 122.395 153.396 40.96 290.816 c 9
 190.464 301.056 l 17
 217.088 264.192 284.672 239.616 323.584 239.616 c 2
 327.68 239.616 l 2
 425.984 239.616 491.521 327.68 512 440.32 c 0
 514.707 455.211 470.452 432.134 446.464 432.128 c 0
 243.46 432.128 32.7676 577.536 32.7676 872.448 c 0
 32.7676 1089.54 159.744 1294.34 348.16 1294.34 c 0
 483.328 1294.34 544.768 1245.18 632.832 1130.5 c 1
 479.232 1114.11 l 0
 454.656 1140.74 397.312 1159.17 364.544 1159.17 c 2
 360.448 1159.17 l 2
 253.952 1159.17 200.704 1069.06 176.128 958.464 c 1
495.616 581.632 m 0
 495.616 698.368 389.12 831.488 239.616 831.488 c 0
 216.423 831.488 201.2 826.798 184.32 817.152 c 1
 184.32 698.368 319.488 567.296 440.32 567.296 c 0
 462.657 567.296 495.616 564.406 495.616 581.632 c 0
EndSplineSet
Fore
279 1005 m 1
 288 1011 298 1014 309 1014 c 0
 486 1014 666 819 666 552 c 0
 666 293 521 57 340 57 c 0
 223 57 127 125 47 313 c 9
 262 356 l 17
 268 310 319 287 332 287 c 1
 336 287 l 0
 380 287 410 338 419 404 c 1
 406 391 391 385 375 385 c 0
 207 385 33 540 33 854 c 0
 33 1105 158 1341 344 1341 c 0
 477 1341 538 1269 624 1099 c 1
 410 1049 l 0
 405 1095 354 1112 348 1112 c 0
 308 1112 288 1064 279 1005 c 1
413 592.44 m 0
 413 699 364.04 821.4 294.92 821.4 c 0
 284.84 821.4 276.2 818.52 269 809.881 c 1
 269 699 330.92 576.6 387.08 576.6 c 0
 389.452 576.6 392.142 576.441 394.871 576.441 c 0
 403.737 576.441 413 578.125 413 592.44 c 0
EndSplineSet
EndChar
StartChar: dieresis
Encoding: 103 168 144
Width: 933
Flags: HW
HStem: 667 328<119 354.3 590 825.3>
VStem: 72 328<714 949.3> 543 328<714 949.3>
Back
536.576 837.632 m 0
 536.576 888.832 579.584 931.84 630.784 931.84 c 0
 681.984 931.84 724.992 888.832 724.992 837.632 c 0
 724.992 786.432 681.984 743.424 630.784 743.424 c 0
 579.584 743.424 536.576 786.432 536.576 837.632 c 0
65.5361 835.584 m 0
 65.5361 886.784 108.544 929.792 159.744 929.792 c 0
 210.944 929.792 253.952 886.784 253.952 835.584 c 0
 253.952 784.384 210.944 741.376 159.744 741.376 c 0
 108.544 741.376 65.5361 784.384 65.5361 835.584 c 0
EndSplineSet
Refer: 14 46 N 1 0 0 1 479 700 2
Refer: 14 46 N 1 0 0 1 8 700 2
EndChar
StartChar: copyright
Encoding: 104 169 145
Width: 1089
Flags: HW
HStem: 193 185<202.5 735.5> 496 159<402.7 515.784> 844 161<402.7 510.612> 1122 176<202.5 735.5>
VStem: -78 178<483.5 1016.5> 216 159<682.4 816.3> 839 165<483.5 1016.5>
Back
-77.8242 745.472 m 4
 -77.8242 1050.71 164.397 1298.43 462.848 1298.43 c 4
 761.299 1298.43 1003.52 1050.71 1003.52 745.472 c 4
 1003.52 440.238 761.299 192.512 462.848 192.512 c 4
 164.397 192.512 -77.8242 440.238 -77.8242 745.472 c 4
654.295 579.216 m 21
 608.952 533.873 540.938 496.087 470.405 496.087 c 4
 329.339 496.087 215.982 609.443 215.982 750.51 c 4
 215.982 891.576 329.339 1004.93 470.405 1004.93 c 4
 540.938 1004.93 608.952 977.224 654.295 931.881 c 13
 540.672 815.104 l 21
 522.24 831.488 495.616 843.776 468.992 843.776 c 4
 417.792 843.776 374.784 800.768 374.784 749.568 c 4
 374.784 698.368 417.792 655.36 468.992 655.36 c 4
 495.616 655.36 526.336 665.6 544.768 681.984 c 13
 654.295 579.216 l 21
99.5322 750.183 m 4
 99.5322 545.28 264.396 378.061 469.299 378.061 c 4
 674.201 378.061 839.065 545.28 839.065 750.183 c 4
 839.065 955.085 674.201 1122.3 469.299 1122.3 c 4
 264.396 1122.3 99.5322 955.085 99.5322 750.183 c 4
EndSplineSet
Fore
-78 745 m 0
 -78 1051 164 1298 463 1298 c 0
 761 1298 1004 1051 1004 745 c 0
 1004 440 761 193 463 193 c 0
 164 193 -78 440 -78 745 c 0
654 579 m 17
 609 534 541 496 470 496 c 0
 329 496 216 609 216 751 c 0
 216 892 329 1005 470 1005 c 0
 541 1005 609 977 654 932 c 9
 541 815 l 17
 522 831 496 844 469 844 c 0
 418 844 375 801 375 750 c 0
 375 698 418 655 469 655 c 0
 496 655 526 666 545 682 c 9
 654 579 l 17
100 750 m 0
 100 545 264 378 469 378 c 0
 674 378 839 545 839 750 c 0
 839 955 674 1122 469 1122 c 0
 264 1122 100 955 100 750 c 0
EndSplineSet
EndChar
StartChar: guillemotleft
Encoding: 106 171 146
Width: 907
Flags: HW
VStem: 51 756<827 1118>
Back
643.072 1118.21 m 1
 778.24 1118.21 l 1
 585.729 827.392 l 1
 778.24 536.576 l 1
 643.072 536.576 l 1
 450.56 827.392 l 1
 643.072 1118.21 l 1
241.664 1118.21 m 1
 376.832 1118.21 l 1
 184.32 827.392 l 1
 376.832 536.576 l 1
 241.664 536.576 l 1
 49.1523 827.392 l 1
 241.664 1118.21 l 1
EndSplineSet
Fore
592 1118 m 1
 807 1118 l 1
 615 827 l 1
 807 536 l 1
 592 536 l 1
 399 827 l 1
 592 1118 l 1
240 1118 m 1
 459 1118 l 1
 267 827 l 1
 455 536 l 1
 240 536 l 1
 51 827 l 1
 240 1118 l 1
EndSplineSet
EndChar
StartChar: logicalnot
Encoding: 107 172 147
Width: 1120
Flags: HW
HStem: 698 244<143 774>
VStem: 774 230<350 698>
Back
909.312 544.768 m 1
 774.144 544.768 l 1
 774.144 749.568 l 0
 143.36 749.568 l 1
 143.36 892.928 l 1
 909.312 892.928 l 1
 909.312 544.768 l 1
EndSplineSet
Fore
1004 350 m 1
 774 350 l 1
 774 698 l 0
 143 698 l 1
 143 942 l 1
 1004 942 l 1
 1004 350 l 1
EndSplineSet
EndChar
StartChar: registered
Encoding: 109 174 149
Width: 1224
Flags: HW
HStem: 421 198<422.2 804.4> 1097 133<537 656.658> 1322 198<417 778.4>
VStem: 84 199<654.9 1278.9> 397 140<712 863 982 1097> 682 135<970.1 1109.2> 938 199<678.3 1284.1>
Back
200.704 749.568 m 0
 200.704 479.232 417.792 358.4 591.872 358.4 c 0
 770.048 358.4 985.088 499.712 985.088 749.568 c 0
 985.088 1019.9 745.472 1142.78 591.872 1142.78 c 0
 413.696 1142.78 200.704 1015.81 200.704 749.568 c 0
83.9678 749.568 m 0
 83.9678 1101.82 368.64 1259.52 591.872 1259.52 c 0
 868.352 1259.52 1101.82 1044.48 1101.82 749.568 c 0
 1101.82 446.464 847.872 241.664 591.872 241.664 c 0
 356.352 241.664 83.9678 413.696 83.9678 749.568 c 0
497.664 800.768 m 1
 514.048 800.768 530.432 800.768 548.864 800.768 c 0
 626.688 800.768 702.464 806.912 702.464 866.304 c 1
 702.464 927.744 608.256 931.84 526.336 931.84 c 0
 516.096 931.84 505.856 931.84 497.664 931.84 c 1
 497.664 800.768 l 1
415.744 1009.66 m 0
 497.664 1009.66 l 1
 647.168 1009.66 782.336 972.8 782.336 866.304 c 0
 782.336 765.952 692.224 739.328 595.968 724.992 c 1
 804.864 495.616 l 1
 704.512 495.616 l 1
 497.664 720.896 l 1
 497.664 495.616 l 1
 415.744 495.616 l 1
 415.744 1009.66 l 0
EndSplineSet
Fore
283 963 m 0
 283 726 466 619 612 619 c 0
 760 619 938 744 938 963 c 0
 938 1210 740 1322 612 1322 c 0
 462 1322 283 1206 283 963 c 0
84 963 m 0
 84 1348 380 1520 612 1520 c 0
 897 1520 1137 1286 1137 963 c 0
 1137 640 876 421 612 421 c 0
 367 421 84 605 84 963 c 0
562 982 m 1
 575 982 588 981 603 981 c 0
 665 981 677 986 677 1039 c 1
 677 1093 650 1097 584 1097 c 0
 576 1097 568 1097 562 1097 c 1
 562 982 l 1
422 1230 m 0
 562 1230 l 1
 719 1230 812 1181 812 1039 c 0
 812 935 764 919 716 893 c 1
 811 711 l 1
 660 711 l 1
 589.171 878 l 1
 562 883 l 1
 562 712 l 1
 422 712 l 1
 422 1230 l 0
EndSplineSet
EndChar
StartChar: macron
Encoding: 110 175 150
Width: 706
Flags: HW
HStem: 940 231<53 657>
Back
53.248 1130.5 m 1
 657.408 1130.5 l 1
 657.408 995.328 l 1
 53.248 995.328 l 1
 53.248 1130.5 l 1
EndSplineSet
Fore
53 1171 m 1
 657 1171 l 1
 657 940 l 1
 53 940 l 1
 53 1171 l 1
EndSplineSet
EndChar
StartChar: degree
Encoding: 111 176 151
Width: 763
Flags: HW
HStem: 866 162<195.7 406.3> 1328 162<195.7 406.3>
VStem: -17 173<1068.8 1285.9> 445 173<1068.8 1285.9>
Back
156.304 1177.7 m 4
 156.304 1093.96 219.832 1027.54 300.688 1027.54 c 4
 381.542 1027.54 445.071 1093.96 445.071 1177.7 c 4
 445.071 1261.45 381.542 1327.86 300.688 1327.86 c 4
 219.832 1327.86 156.304 1261.45 156.304 1177.7 c 4
-16.5684 1178.03 m 4
 -16.5684 1351.5 124.682 1490.27 300.626 1490.27 c 4
 476.569 1490.27 617.82 1351.5 617.82 1178.03 c 4
 617.82 1004.56 476.569 865.792 300.626 865.792 c 4
 124.682 865.792 -16.5684 1004.56 -16.5684 1178.03 c 4
EndSplineSet
Fore
156 1178 m 0
 156 1094 220 1028 301 1028 c 0
 382 1028 445 1094 445 1178 c 0
 445 1261 382 1328 301 1328 c 0
 220 1328 156 1261 156 1178 c 0
-17 1178 m 0
 -17 1351 125 1490 301 1490 c 0
 477 1490 618 1351 618 1178 c 0
 618 1005 477 866 301 866 c 0
 125 866 -17 1005 -17 1178 c 0
EndSplineSet
EndChar
StartChar: acute
Encoding: 115 180 153
Width: 577
Flags: HW
HStem: 1132 434<251 316>
VStem: 107 386<1254 1418>
Back
90.1123 1247.23 m 1
 260.096 1490.94 l 1
 432.128 1490.94 l 2
 264.192 1247.23 l 2
 90.1123 1247.23 l 1
EndSplineSet
Fore
251 1132 m 2
 245.983 1125.93 238.246 1123.48 229.152 1123.48 c 0
 203.809 1123.48 167.927 1142.49 151 1155 c 0
 133.425 1167.55 103.244 1211.62 103.244 1239.73 c 0
 103.244 1245.21 104.39 1250.09 107 1254 c 2
 316 1566 l 1
 325.992 1579.32 342.148 1584.57 360.26 1584.57 c 0
 391.087 1584.57 427.583 1569.38 449 1553 c 0
 475.363 1535.68 502.861 1489.42 502.861 1451.4 c 0
 502.861 1438.95 499.91 1427.38 493 1418 c 1
 251 1132 l 2
EndSplineSet
EndChar
StartChar: mu
Encoding: 116 181 154
Width: 1128
Flags: HW
HStem: -29 234<498.4 651.8>
VStem: 143 244<-397 78 264 889> 762 244<0 84 320.1 889>
Back
286.72 74.0361 m 1
 286.72 -395.264 l 1
 143.36 -395.264 l 1
 143.36 872.448 l 1
 288.768 872.448 l 0
 288.768 413.696 l 0
 288.768 192.512 366.592 110.592 485.376 110.592 c 1
 645.12 110.592 716.8 290.816 716.8 413.696 c 0
 716.8 872.448 l 9
 860.16 872.448 l 1
 860.16 0 l 1
 716.8 0 l 1
 716.8 98.3037 l 17
 657.408 24.5762 575.478 -26.624 495.616 -26.624 c 0
 372.736 -26.624 331.776 28.6719 286.72 74.0361 c 1
EndSplineSet
Fore
387 78 m 1
 387 -397 l 1
 143 -397 l 1
 143 889 l 1
 391 889 l 0
 391 467 l 0
 391 264 516 205 586 205 c 1
 679 205 762 354 762 467 c 0
 762 889 l 9
 1006 889 l 1
 1006 0 l 1
 762 0 l 1
 762 84 l 17
 727 8 638 -29 592 -29 c 0
 520 -29 414 22 387 78 c 1
EndSplineSet
EndChar
StartChar: paragraph
Encoding: 117 182 155
Width: 1286
Flags: HW
HStem: 0 229<735 883>
VStem: 111 243<861.1 1114.6> 492 243<229 570 847 1144> 883 257<229 565 781 1229>
Back
634.88 1259.52 m 1
 634.88 747.52 l 1
 669.696 747.52 815.104 739.328 851.968 739.328 c 1
 851.968 1271.81 l 1
 817.152 1271.81 671.744 1259.52 634.88 1259.52 c 1
491.521 1226.75 m 1
 385.024 1191.94 253.952 1134.59 253.952 995.328 c 1
 253.952 839.68 380.928 802.816 491.521 774.145 c 1
 491.521 1226.75 l 1
634.88 135.168 m 1
 851.968 135.168 l 1
 851.968 612.352 l 1
 815.104 612.352 671.744 622.592 634.88 622.592 c 1
 634.88 135.168 l 1
491.521 0 m 1
 491.521 643.072 l 1
 274.432 690.176 110.592 763.904 110.592 995.328 c 0
 110.592 1265.66 446.464 1396.74 806.912 1396.74 c 1
 1003.52 1396.74 l 0
 1003.52 0 l 1
 491.521 0 l 1
EndSplineSet
Fore
735 1221 m 1
 735 795 l 1
 746 795 872 781 883 781 c 1
 883 1229 l 1
 872 1229 746 1221 735 1221 c 1
492 1144 m 1
 448 1124 354 1090 354 1008 c 1
 354 895 447 868 492 847 c 1
 492 1144 l 1
735 229 m 1
 883 229 l 1
 883 565 l 1
 872 565 746 570 735 570 c 1
 735 229 l 1
492 0 m 1
 492 618 l 1
 298 671 111 752 111 1008 c 0
 111 1300 540 1441 868 1441 c 1
 1140 1441 l 0
 1140 0 l 1
 492 0 l 1
EndSplineSet
EndChar
StartChar: cedilla
Encoding: 119 184 157
Width: 528
Flags: HW
HStem: -365 439<170 307>
VStem: 188 227<-180.3 -58.5005>
Back
106.496 -190.464 m 1
 137.216 -167.936 200.704 -122.88 200.704 -86.0156 c 0
 200.704 -53.248 178.176 -28.6719 145.408 18.4316 c 0
 274.432 73.7275 l 0
 317.44 32.7676 358.4 -28.6719 358.4 -98.3037 c 0
 358.4 -208.896 219.136 -270.336 149.504 -315.392 c 1
 106.496 -190.464 l 1
EndSplineSet
Fore
57 -238 m 1
 101 -213 188 -168 188 -127 c 0
 188 -94 188 -61 145 -16 c 9
 209 19 307 74 307 74 c 0
 362 25 415 -49 415 -133 c 0
 415 -244 258 -319 170 -365 c 1
 57 -238 l 1
EndSplineSet
EndChar
StartChar: guillemotright
Encoding: 122 187 158
Width: 983
Flags: HW
VStem: 127 756<537 827>
Back
223.232 1118.21 m 1
 415.744 827.392 l 1
 223.232 536.576 l 1
 88.0645 536.576 l 1
 280.576 827.392 l 1
 88.0645 1118.21 l 1
 223.232 1118.21 l 1
624.64 1118.21 m 1
 817.152 827.392 l 1
 624.64 536.576 l 1
 489.472 536.576 l 1
 681.984 827.392 l 1
 489.472 1118.21 l 1
 624.64 1118.21 l 1
EndSplineSet
Fore
342 1119 m 1
 535 827 l 1
 342 537 l 1
 127 537 l 1
 319 827 l 1
 127 1118 l 1
 342 1119 l 1
694 1119 m 1
 883 827 l 1
 694 537 l 1
 479 537 l 1
 667 827 l 1
 475 1118 l 1
 694 1119 l 1
EndSplineSet
EndChar
StartChar: AE
Encoding: 133 198 166
Width: 1589
Flags: HW
HStem: 0 250<1084 1473> 596 243<621 819 1085 1473> 1203 253<1085 1473>
VStem: 819 266<250 590 840 1203>
Back
775.021 645.346 m 1
 510.447 645.346 l 0
 251.935 0 l 0
 72.5918 0 l 1
 663.998 1456.13 l 1
 1372.83 1456.13 l 1
 1372.83 1307.21 l 0
 930.878 1307.21 l 0
 930.878 788.392 l 1
 1372.83 788.392 l 1
 1372.83 641.075 l 0
 930.878 641.075 l 0
 930.878 147.318 l 0
 1372.83 147.318 l 1
 1372.83 0 l 1
 775.021 0 l 1
 775.021 645.346 l 1
772.885 1236.75 m 1
 772.885 1311.48 l 1
 570.665 788.392 l 1
 775.021 788.392 l 1
 772.885 1236.75 l 1
EndSplineSet
Fore
819 596 m 1
 541 596 l 0
 308 0 l 0
 10 0 l 1
 586 1456 l 1
 1473 1456 l 1
 1473 1203 l 0
 1085 1203 l 0
 1085 840 l 1
 1473 840 l 1
 1473 590 l 0
 1084 590 l 0
 1084 250 l 0
 1473 250 l 1
 1473 0 l 1
 819 0 l 1
 819 596 l 1
819 1286 m 1
 621 839 l 1
 819 839 l 1
 819 1286 l 1
EndSplineSet
EndChar
StartChar: Eth
Encoding: 143 208 176
Width: 1480
Flags: HW
HStem: 0 243<528 991.1> 612 239<135 260 528 774> 1211 245<527 991.1>
VStem: 260 268<243 612 851 1211> 1090 267<352.6 1100.1>
Back
315.392 662.405 m 1
 134.184 662.405 l 1
 134.184 802.979 l 1
 315.392 802.979 l 1
 315.392 1456.13 l 1
 696.483 1456.13 l 1
 1062.83 1456.13 1301.22 1133.12 1301.22 726.303 c 1
 1301.22 319.488 1056.44 0 696.483 0 c 0
 470.549 0 l 1
 315.392 0 l 1
 315.392 662.405 l 1
472.679 662.405 m 1
 472.679 142.704 l 1
 696.483 142.704 l 1
 954.204 142.704 1143.93 379.126 1143.93 726.303 c 1
 1143.93 1073.48 954.204 1312.03 696.483 1312.03 c 1
 472.679 1312.03 l 1
 472.679 802.979 l 1
 773.161 802.979 l 1
 773.161 662.405 l 1
 472.679 662.405 l 1
EndSplineSet
Fore
260 612 m 1
 135 612 l 1
 135 851 l 1
 260 851 l 1
 260 1456 l 1
 696 1456 l 1
 1097 1456 1357 1133 1357 727 c 1
 1357 320 1090 0 696 0 c 0
 471 0 l 1
 260 0 l 1
 260 612 l 1
528 612 m 1
 528 243 l 1
 696 243 l 1
 923 243 1090 439 1090 727 c 1
 1090 1014 923 1211 696 1211 c 1
 527 1211 l 1
 527 851 l 1
 774 851 l 1
 774 612 l 1
 528 612 l 1
EndSplineSet
EndChar
StartChar: figuredash
Encoding: 191 8210 186
Width: 1177
Flags: HW
HStem: 494 229<201 969>
Back
159.744 675.84 m 1
 927.744 675.84 l 1
 927.744 540.672 l 1
 159.744 540.672 l 1
 159.744 675.84 l 1
EndSplineSet
Fore
201 723 m 1
 969 723 l 1
 969 494 l 1
 201 494 l 1
 201 723 l 1
EndSplineSet
EndChar
StartChar: endash
Encoding: 192 8211 187
Width: 1001
Flags: HW
HStem: 494 229<160 846>
Back
159.744 675.84 m 1
 845.824 675.84 l 1
 845.824 540.672 l 1
 159.744 540.672 l 1
 159.744 675.84 l 1
EndSplineSet
Fore
160 723 m 1
 846 723 l 1
 846 494 l 1
 160 494 l 1
 160 723 l 1
EndSplineSet
EndChar
StartChar: emdash
Encoding: 193 8212 188
Width: 1290
Flags: HW
HStem: 494 229<139 1149>
Back
139.264 675.84 m 1
 1148.93 675.84 l 1
 1148.93 540.672 l 1
 139.264 540.672 l 1
 139.264 675.84 l 1
EndSplineSet
Fore
139 723 m 1
 1149 723 l 1
 1149 494 l 1
 139 494 l 1
 139 723 l 1
EndSplineSet
EndChar
